<svg width="1920" height="1080" viewBox="0 0 1920 1080" fill="none" xmlns="http://www.w3.org/2000/svg">
<g clip-path="url(#clip0_3_148)">
<rect width="1920" height="1080" transform="translate(0 0.506226)" fill="#28A1F1"/>
<path d="M235.783 928.301L242.663 945.261L239.975 944.717L246.215 928.301H251.719L240.967 952.941L230.215 928.301H235.783ZM269.009 933.997C268.113 933.506 267.196 933.101 266.257 932.781C265.34 932.461 264.476 932.301 263.665 932.301C262.663 932.301 261.873 932.504 261.297 932.909C260.721 933.314 260.433 933.922 260.433 934.733C260.433 935.288 260.647 935.789 261.073 936.237C261.521 936.664 262.087 937.048 262.769 937.389C263.473 937.73 264.199 938.04 264.945 938.317C265.628 938.573 266.3 938.882 266.961 939.245C267.644 939.586 268.252 940.024 268.785 940.557C269.319 941.069 269.745 941.72 270.065 942.509C270.385 943.277 270.545 944.226 270.545 945.357C270.545 946.552 270.236 947.661 269.617 948.685C268.999 949.709 268.092 950.541 266.897 951.181C265.703 951.8 264.231 952.109 262.481 952.109C261.585 952.109 260.668 952.024 259.729 951.853C258.812 951.661 257.905 951.384 257.009 951.021C256.113 950.637 255.249 950.157 254.417 949.581L256.465 945.965C257.02 946.37 257.617 946.733 258.257 947.053C258.919 947.352 259.58 947.586 260.241 947.757C260.903 947.928 261.511 948.013 262.065 948.013C262.62 948.013 263.175 947.938 263.729 947.789C264.305 947.618 264.775 947.341 265.137 946.957C265.521 946.573 265.713 946.04 265.713 945.357C265.713 944.888 265.553 944.461 265.233 944.077C264.935 943.693 264.519 943.341 263.985 943.021C263.473 942.701 262.908 942.424 262.289 942.189C261.564 941.912 260.817 941.592 260.049 941.229C259.281 940.866 258.556 940.429 257.873 939.917C257.212 939.384 256.668 938.733 256.241 937.965C255.836 937.176 255.633 936.216 255.633 935.085C255.633 933.72 255.932 932.536 256.529 931.533C257.148 930.53 258.012 929.741 259.121 929.165C260.231 928.568 261.511 928.237 262.961 928.173C264.86 928.173 266.396 928.397 267.569 928.845C268.764 929.293 269.831 929.826 270.769 930.445L269.009 933.997ZM275.729 951.853V927.341H275.761L288.849 945.901L286.865 945.453L299.921 927.341H299.985V951.853H295.345V937.805L295.633 940.205L287.665 951.533H287.601L279.409 940.205L280.209 937.997V951.853H275.729ZM306.713 928.301H311.353V947.373H322.425V951.853H306.713V928.301Z" fill="white"/>
<path fill-rule="evenodd" clip-rule="evenodd" d="M173.172 966.579L152.81 933.632H139.836V946.169L152.701 966.625L173.172 966.625V966.579Z" fill="url(#paint0_linear_3_148)" fill-opacity="0.5"/>
<path d="M160.522 933.64L139.853 946.224V921.056L160.522 933.64Z" fill="white"/>
<path d="M193.492 900.64H213.964L173.172 966.64H152.701L193.492 900.64Z" fill="white"/>
<path d="M195.075 180.012C194.307 180.652 192.867 181.516 190.755 182.604C188.707 183.692 186.179 184.652 183.171 185.484C180.163 186.316 176.835 186.7 173.187 186.636C167.619 186.508 162.627 185.516 158.211 183.66C153.859 181.74 150.147 179.148 147.075 175.884C144.067 172.62 141.763 168.876 140.163 164.652C138.563 160.428 137.763 155.916 137.763 151.116C137.763 145.74 138.563 140.812 140.163 136.332C141.827 131.852 144.163 127.98 147.171 124.716C150.243 121.452 153.891 118.924 158.115 117.132C162.339 115.34 167.011 114.444 172.131 114.444C176.867 114.444 181.059 115.084 184.707 116.364C188.355 117.644 191.331 119.02 193.635 120.492L188.163 133.644C186.563 132.428 184.419 131.18 181.731 129.9C179.107 128.556 176.067 127.884 172.611 127.884C169.923 127.884 167.331 128.46 164.835 129.612C162.403 130.7 160.227 132.268 158.307 134.316C156.451 136.364 154.979 138.764 153.891 141.516C152.803 144.204 152.259 147.148 152.259 150.348C152.259 153.74 152.739 156.844 153.699 159.66C154.723 162.476 156.163 164.908 158.019 166.956C159.875 168.94 162.083 170.476 164.643 171.564C167.267 172.652 170.211 173.196 173.475 173.196C177.251 173.196 180.483 172.588 183.171 171.372C185.859 170.156 187.907 168.876 189.315 167.532L195.075 180.012ZM206.621 150.636C206.621 145.772 207.549 141.164 209.405 136.812C211.261 132.46 213.821 128.62 217.085 125.292C220.413 121.9 224.253 119.244 228.605 117.324C232.957 115.404 237.629 114.444 242.621 114.444C247.549 114.444 252.189 115.404 256.541 117.324C260.893 119.244 264.733 121.9 268.061 125.292C271.453 128.62 274.077 132.46 275.933 136.812C277.853 141.164 278.813 145.772 278.813 150.636C278.813 155.628 277.853 160.3 275.933 164.652C274.077 169.004 271.453 172.844 268.061 176.172C264.733 179.436 260.893 181.996 256.541 183.852C252.189 185.708 247.549 186.636 242.621 186.636C237.629 186.636 232.957 185.708 228.605 183.852C224.253 181.996 220.413 179.436 217.085 176.172C213.821 172.844 211.261 169.004 209.405 164.652C207.549 160.3 206.621 155.628 206.621 150.636ZM221.021 150.636C221.021 153.772 221.565 156.716 222.653 159.468C223.805 162.156 225.373 164.556 227.357 166.668C229.405 168.716 231.741 170.316 234.365 171.468C237.053 172.62 239.965 173.196 243.101 173.196C246.109 173.196 248.893 172.62 251.453 171.468C254.077 170.316 256.349 168.716 258.269 166.668C260.189 164.556 261.693 162.156 262.781 159.468C263.869 156.716 264.413 153.772 264.413 150.636C264.413 147.436 263.837 144.46 262.685 141.708C261.597 138.956 260.061 136.556 258.077 134.508C256.157 132.396 253.885 130.764 251.261 129.612C248.637 128.46 245.789 127.884 242.717 127.884C239.645 127.884 236.797 128.46 234.173 129.612C231.549 130.764 229.245 132.396 227.261 134.508C225.277 136.556 223.741 138.956 222.653 141.708C221.565 144.46 221.021 147.436 221.021 150.636ZM294.611 115.212H308.531V172.428H341.747V185.868H294.611V115.212ZM351.742 150.636C351.742 145.772 352.67 141.164 354.526 136.812C356.382 132.46 358.942 128.62 362.206 125.292C365.534 121.9 369.374 119.244 373.726 117.324C378.078 115.404 382.75 114.444 387.742 114.444C392.67 114.444 397.31 115.404 401.662 117.324C406.014 119.244 409.854 121.9 413.182 125.292C416.574 128.62 419.198 132.46 421.054 136.812C422.974 141.164 423.934 145.772 423.934 150.636C423.934 155.628 422.974 160.3 421.054 164.652C419.198 169.004 416.574 172.844 413.182 176.172C409.854 179.436 406.014 181.996 401.662 183.852C397.31 185.708 392.67 186.636 387.742 186.636C382.75 186.636 378.078 185.708 373.726 183.852C369.374 181.996 365.534 179.436 362.206 176.172C358.942 172.844 356.382 169.004 354.526 164.652C352.67 160.3 351.742 155.628 351.742 150.636ZM366.142 150.636C366.142 153.772 366.686 156.716 367.774 159.468C368.926 162.156 370.494 164.556 372.478 166.668C374.526 168.716 376.862 170.316 379.486 171.468C382.174 172.62 385.086 173.196 388.222 173.196C391.23 173.196 394.014 172.62 396.574 171.468C399.198 170.316 401.47 168.716 403.39 166.668C405.31 164.556 406.814 162.156 407.902 159.468C408.99 156.716 409.534 153.772 409.534 150.636C409.534 147.436 408.958 144.46 407.806 141.708C406.718 138.956 405.182 136.556 403.198 134.508C401.278 132.396 399.006 130.764 396.382 129.612C393.758 128.46 390.91 127.884 387.838 127.884C384.766 127.884 381.918 128.46 379.294 129.612C376.67 130.764 374.366 132.396 372.382 134.508C370.398 136.556 368.862 138.956 367.774 141.708C366.686 144.46 366.142 147.436 366.142 150.636ZM461.14 115.212C465.556 115.212 469.492 115.788 472.948 116.94C476.404 118.028 479.284 119.628 481.588 121.74C483.956 123.788 485.748 126.284 486.964 129.228C488.18 132.108 488.788 135.372 488.788 139.02C488.788 141.9 488.34 144.78 487.444 147.66C486.612 150.54 485.204 153.164 483.22 155.532C481.3 157.9 478.74 159.82 475.54 161.292C472.34 162.7 468.372 163.404 463.636 163.404H453.652V185.868H439.732V115.212H461.14ZM463.54 149.964C465.652 149.964 467.412 149.612 468.82 148.908C470.228 148.204 471.316 147.308 472.084 146.22C472.916 145.132 473.492 144.012 473.812 142.86C474.196 141.644 474.388 140.524 474.388 139.5C474.388 138.732 474.26 137.772 474.004 136.62C473.812 135.404 473.364 134.188 472.66 132.972C471.956 131.756 470.868 130.732 469.396 129.9C467.988 129.068 466.068 128.652 463.636 128.652H453.652V149.964H463.54ZM476.596 158.604L494.068 185.868H477.844L459.988 158.988L476.596 158.604ZM545.193 132.3C542.505 130.828 539.753 129.612 536.937 128.652C534.185 127.692 531.593 127.212 529.161 127.212C526.153 127.212 523.785 127.82 522.057 129.036C520.329 130.252 519.465 132.076 519.465 134.508C519.465 136.172 520.105 137.676 521.385 139.02C522.729 140.3 524.425 141.452 526.473 142.476C528.585 143.5 530.761 144.428 533.001 145.26C535.049 146.028 537.065 146.956 539.049 148.044C541.097 149.068 542.921 150.38 544.521 151.98C546.121 153.516 547.401 155.468 548.361 157.836C549.321 160.14 549.801 162.988 549.801 166.38C549.801 169.964 548.873 173.292 547.017 176.364C545.161 179.436 542.441 181.932 538.857 183.852C535.273 185.708 530.857 186.636 525.609 186.636C522.921 186.636 520.169 186.38 517.353 185.868C514.601 185.292 511.881 184.46 509.193 183.372C506.505 182.22 503.913 180.78 501.417 179.052L507.561 168.204C509.225 169.42 511.017 170.508 512.937 171.468C514.921 172.364 516.905 173.068 518.889 173.58C520.873 174.092 522.697 174.348 524.361 174.348C526.025 174.348 527.689 174.124 529.353 173.676C531.081 173.164 532.489 172.332 533.577 171.18C534.729 170.028 535.305 168.428 535.305 166.38C535.305 164.972 534.825 163.692 533.865 162.54C532.969 161.388 531.721 160.332 530.121 159.372C528.585 158.412 526.889 157.58 525.033 156.876C522.857 156.044 520.617 155.084 518.313 153.996C516.009 152.908 513.833 151.596 511.785 150.06C509.801 148.46 508.169 146.508 506.889 144.204C505.673 141.836 505.065 138.956 505.065 135.564C505.065 131.468 505.961 127.916 507.753 124.908C509.609 121.9 512.201 119.532 515.529 117.804C518.857 116.012 522.697 115.02 527.049 114.828C532.745 114.828 537.353 115.5 540.873 116.844C544.457 118.188 547.657 119.788 550.473 121.644L545.193 132.3Z" fill="white"/>
<path d="M142.852 351.045L153.172 376.485L149.14 375.669L158.5 351.045H166.756L150.628 388.005L134.5 351.045H142.852ZM192.692 359.589C191.348 358.853 189.972 358.245 188.564 357.765C187.188 357.285 185.892 357.045 184.676 357.045C183.172 357.045 181.988 357.349 181.124 357.957C180.26 358.565 179.828 359.477 179.828 360.693C179.828 361.525 180.148 362.277 180.788 362.949C181.46 363.589 182.308 364.165 183.332 364.677C184.388 365.189 185.476 365.653 186.596 366.069C187.62 366.453 188.628 366.917 189.62 367.461C190.644 367.973 191.556 368.629 192.356 369.429C193.156 370.197 193.796 371.173 194.276 372.357C194.756 373.509 194.996 374.933 194.996 376.629C194.996 378.421 194.532 380.085 193.604 381.621C192.676 383.157 191.316 384.405 189.524 385.365C187.732 386.293 185.524 386.757 182.9 386.757C181.556 386.757 180.18 386.629 178.772 386.373C177.396 386.085 176.036 385.669 174.692 385.125C173.348 384.549 172.052 383.829 170.804 382.965L173.876 377.541C174.708 378.149 175.604 378.693 176.564 379.173C177.556 379.621 178.548 379.973 179.54 380.229C180.532 380.485 181.444 380.613 182.276 380.613C183.108 380.613 183.94 380.501 184.772 380.277C185.636 380.021 186.34 379.605 186.884 379.029C187.46 378.453 187.748 377.653 187.748 376.629C187.748 375.925 187.508 375.285 187.028 374.709C186.58 374.133 185.956 373.605 185.156 373.125C184.388 372.645 183.54 372.229 182.612 371.877C181.524 371.461 180.404 370.981 179.252 370.437C178.1 369.893 177.012 369.237 175.988 368.469C174.996 367.669 174.18 366.693 173.54 365.541C172.932 364.357 172.628 362.917 172.628 361.221C172.628 359.173 173.076 357.397 173.972 355.893C174.9 354.389 176.196 353.205 177.86 352.341C179.524 351.445 181.444 350.949 183.62 350.853C186.468 350.853 188.772 351.189 190.532 351.861C192.324 352.533 193.924 353.333 195.332 354.261L192.692 359.589ZM202.772 386.373V349.605H202.82L222.452 377.445L219.476 376.773L239.06 349.605H239.156V386.373H232.196V365.301L232.628 368.901L220.676 385.893H220.58L208.292 368.901L209.492 365.589V386.373H202.772ZM249.248 351.045H256.208V379.653H272.816V386.373H249.248V351.045ZM295.127 351.045H318.935V357.765H310.343V386.373H303.383V357.765H295.127V351.045ZM328.48 386.805C326.752 386.805 325.136 386.501 323.632 385.893C322.16 385.285 320.912 384.437 319.888 383.349L322.672 379.653C323.696 380.581 324.64 381.253 325.504 381.669C326.4 382.053 327.2 382.245 327.904 382.245C328.448 382.245 328.928 382.197 329.344 382.101C329.792 381.973 330.144 381.797 330.4 381.573C330.656 381.317 330.784 380.997 330.784 380.613C330.784 380.069 330.56 379.637 330.112 379.317C329.696 378.997 329.152 378.741 328.48 378.549C327.808 378.325 327.088 378.101 326.32 377.877C324.4 377.269 323.008 376.389 322.144 375.237C321.312 374.053 320.896 372.773 320.896 371.397C320.896 370.341 321.168 369.285 321.712 368.229C322.288 367.141 323.184 366.245 324.4 365.541C325.648 364.805 327.248 364.437 329.2 364.437C330.96 364.437 332.448 364.613 333.664 364.965C334.88 365.317 336.032 365.893 337.12 366.693L334.576 370.629C333.968 370.149 333.28 369.749 332.512 369.429C331.776 369.077 331.088 368.885 330.448 368.853C329.872 368.821 329.376 368.885 328.96 369.045C328.576 369.205 328.272 369.413 328.048 369.669C327.824 369.925 327.712 370.197 327.712 370.485C327.68 371.093 327.904 371.573 328.384 371.925C328.896 372.277 329.536 372.549 330.304 372.741C331.072 372.933 331.824 373.157 332.56 373.413C333.584 373.733 334.464 374.165 335.2 374.709C335.936 375.253 336.496 375.909 336.88 376.677C337.296 377.413 337.504 378.309 337.504 379.365C337.504 380.645 337.168 381.861 336.496 383.013C335.856 384.133 334.864 385.045 333.52 385.749C332.208 386.453 330.528 386.805 328.48 386.805ZM350.861 387.381C348.973 387.381 347.389 386.805 346.109 385.653C344.829 384.469 344.157 382.949 344.093 381.093V365.397H350.813V378.597C350.877 379.525 351.117 380.277 351.533 380.853C351.949 381.397 352.653 381.669 353.645 381.669C354.637 381.669 355.485 381.333 356.189 380.661C356.925 379.989 357.485 379.077 357.869 377.925C358.285 376.741 358.493 375.413 358.493 373.941V365.397H365.213V386.373H359.117L358.589 382.533L358.685 382.965C358.205 383.829 357.597 384.597 356.861 385.269C356.125 385.941 355.245 386.453 354.221 386.805C353.229 387.189 352.109 387.381 350.861 387.381ZM374.764 396.453L388.732 365.397H394.78L381.244 396.453H374.764ZM380.38 386.469L370.108 365.397H377.644L385.564 383.109L380.38 386.469ZM406.453 387.381C404.565 387.381 402.981 386.805 401.701 385.653C400.421 384.469 399.749 382.949 399.685 381.093V365.397H406.405V378.597C406.469 379.525 406.709 380.277 407.125 380.853C407.541 381.397 408.245 381.669 409.237 381.669C410.229 381.669 411.077 381.333 411.781 380.661C412.517 379.989 413.077 379.077 413.461 377.925C413.877 376.741 414.085 375.413 414.085 373.941V365.397H420.805V386.373H414.709L414.181 382.533L414.277 382.965C413.797 383.829 413.189 384.597 412.453 385.269C411.717 385.941 410.837 386.453 409.813 386.805C408.821 387.189 407.701 387.381 406.453 387.381ZM428.676 386.373V348.501H435.396V386.373H428.676ZM440.724 372.117L450.228 386.373H442.404L436.308 375.957L440.724 372.117ZM433.38 380.565L432.708 374.181L445.38 364.869L449.46 368.469L433.38 380.565ZM462.607 387.381C460.719 387.381 459.135 386.805 457.855 385.653C456.575 384.469 455.903 382.949 455.839 381.093V365.397H462.559V378.597C462.623 379.525 462.863 380.277 463.279 380.853C463.695 381.397 464.399 381.669 465.391 381.669C466.383 381.669 467.231 381.333 467.935 380.661C468.671 379.989 469.231 379.077 469.615 377.925C470.031 376.741 470.239 375.413 470.239 373.941V365.397H476.959V386.373H470.863L470.335 382.533L470.431 382.965C469.951 383.829 469.343 384.597 468.607 385.269C467.871 385.941 466.991 386.453 465.967 386.805C464.975 387.189 463.855 387.381 462.607 387.381ZM491.646 386.805C489.918 386.805 488.302 386.501 486.798 385.893C485.326 385.285 484.078 384.437 483.054 383.349L485.838 379.653C486.862 380.581 487.806 381.253 488.67 381.669C489.566 382.053 490.366 382.245 491.07 382.245C491.614 382.245 492.094 382.197 492.51 382.101C492.958 381.973 493.31 381.797 493.566 381.573C493.822 381.317 493.95 380.997 493.95 380.613C493.95 380.069 493.726 379.637 493.278 379.317C492.862 378.997 492.318 378.741 491.646 378.549C490.974 378.325 490.254 378.101 489.486 377.877C487.566 377.269 486.174 376.389 485.31 375.237C484.478 374.053 484.062 372.773 484.062 371.397C484.062 370.341 484.334 369.285 484.878 368.229C485.454 367.141 486.35 366.245 487.566 365.541C488.814 364.805 490.414 364.437 492.366 364.437C494.126 364.437 495.614 364.613 496.83 364.965C498.046 365.317 499.198 365.893 500.286 366.693L497.742 370.629C497.134 370.149 496.446 369.749 495.678 369.429C494.942 369.077 494.254 368.885 493.614 368.853C493.038 368.821 492.542 368.885 492.126 369.045C491.742 369.205 491.438 369.413 491.214 369.669C490.99 369.925 490.878 370.197 490.878 370.485C490.846 371.093 491.07 371.573 491.55 371.925C492.062 372.277 492.702 372.549 493.47 372.741C494.238 372.933 494.99 373.157 495.726 373.413C496.75 373.733 497.63 374.165 498.366 374.709C499.102 375.253 499.662 375.909 500.046 376.677C500.462 377.413 500.67 378.309 500.67 379.365C500.67 380.645 500.334 381.861 499.662 383.013C499.022 384.133 498.03 385.045 496.686 385.749C495.374 386.453 493.694 386.805 491.646 386.805ZM516.091 386.949C514.139 386.949 512.363 386.565 510.763 385.797C509.195 384.997 507.947 383.781 507.019 382.149C506.091 380.517 505.627 378.437 505.627 375.909C505.627 373.541 506.107 371.493 507.067 369.765C508.027 368.037 509.291 366.709 510.859 365.781C512.427 364.821 514.091 364.341 515.851 364.341C517.931 364.341 519.499 364.693 520.555 365.397C521.643 366.069 522.539 366.821 523.243 367.653L522.955 368.469L523.579 365.397H529.819V386.373H523.099V381.813L523.627 383.253C523.563 383.253 523.371 383.445 523.051 383.829C522.731 384.181 522.251 384.613 521.611 385.125C521.003 385.605 520.235 386.021 519.307 386.373C518.411 386.757 517.339 386.949 516.091 386.949ZM518.011 381.477C518.811 381.477 519.531 381.365 520.171 381.141C520.811 380.885 521.371 380.533 521.851 380.085C522.331 379.605 522.747 379.013 523.099 378.309V373.173C522.843 372.469 522.459 371.877 521.947 371.397C521.435 370.885 520.827 370.501 520.123 370.245C519.419 369.957 518.635 369.813 517.771 369.813C516.811 369.813 515.915 370.069 515.083 370.581C514.283 371.061 513.643 371.733 513.163 372.597C512.683 373.461 512.443 374.453 512.443 375.573C512.443 376.693 512.699 377.701 513.211 378.597C513.723 379.493 514.395 380.197 515.227 380.709C516.091 381.221 517.019 381.477 518.011 381.477Z" fill="white"/>
<path d="M134.5 582.692H142.66L150.196 604.868L149.092 604.388L155.668 588.02L158.884 597.572L148.708 619.412L134.5 582.692ZM152.212 582.692H159.124L167.812 604.148L166.564 603.956L173.044 582.692H180.532L166.9 619.316L152.212 582.692ZM186.505 617.78V579.908H193.081V601.028L193.033 600.212C193.769 598.9 194.809 597.844 196.153 597.044C197.497 596.212 199.145 595.796 201.097 595.796C203.081 595.796 204.729 596.388 206.041 597.572C207.385 598.724 208.073 600.228 208.105 602.084V617.78H201.385V604.58C201.353 603.652 201.097 602.916 200.617 602.372C200.169 601.796 199.401 601.508 198.313 601.508C197.289 601.508 196.393 601.844 195.625 602.516C194.857 603.188 194.265 604.1 193.849 605.252C193.433 606.404 193.225 607.732 193.225 609.236V617.78H186.505ZM215.965 596.804H222.685V617.78H215.965V596.804ZM215.821 589.364C215.821 588.372 216.205 587.556 216.973 586.916C217.773 586.276 218.621 585.956 219.517 585.956C220.413 585.956 221.229 586.276 221.965 586.916C222.733 587.556 223.117 588.372 223.117 589.364C223.117 590.356 222.733 591.172 221.965 591.812C221.229 592.42 220.413 592.724 219.517 592.724C218.621 592.724 217.773 592.42 216.973 591.812C216.205 591.172 215.821 590.356 215.821 589.364ZM232.534 587.588H239.254V596.708H244.342V601.94H239.254V617.78H232.534V601.94H229.27V596.708H232.534V587.588ZM260.736 618.356C258.176 618.356 256 617.876 254.208 616.916C252.448 615.956 251.104 614.628 250.176 612.932C249.248 611.236 248.784 609.284 248.784 607.076C248.784 604.964 249.328 603.06 250.416 601.364C251.504 599.668 252.96 598.324 254.784 597.332C256.608 596.308 258.64 595.796 260.88 595.796C263.888 595.796 266.352 596.676 268.272 598.436C270.224 600.164 271.488 602.676 272.064 605.972L255.744 611.156L254.256 607.508L266.064 603.524L264.672 604.148C264.416 603.316 263.952 602.596 263.28 601.988C262.64 601.348 261.664 601.028 260.352 601.028C259.36 601.028 258.48 601.268 257.712 601.748C256.976 602.196 256.4 602.852 255.984 603.716C255.6 604.548 255.408 605.54 255.408 606.692C255.408 608.004 255.648 609.108 256.128 610.004C256.608 610.868 257.264 611.524 258.096 611.972C258.928 612.42 259.856 612.644 260.88 612.644C261.616 612.644 262.32 612.516 262.992 612.26C263.696 612.004 264.384 611.668 265.056 611.252L268.032 616.244C266.912 616.884 265.696 617.396 264.384 617.78C263.104 618.164 261.888 618.356 260.736 618.356Z" fill="white"/>
<path d="M154.852 424.001V447.233H151.428V437.217H139.652V447.233H136.228V424.001H139.652V433.953H151.428V424.001H154.852ZM162.024 424.001H177.288V427.297H165.448V433.921H175.976V437.217H165.448V443.937H177.736V447.233H162.024V424.001ZM181.713 424.001H186.065L201.169 447.233H196.785L181.713 424.001ZM181.393 447.233L189.489 434.529L191.153 437.889L185.617 447.233H181.393ZM191.281 433.281L196.753 424.001H200.881L193.105 436.193L191.281 433.281ZM222.16 426.369C222.011 427.393 221.872 428.406 221.744 429.409C221.637 430.411 221.509 431.425 221.36 432.449H224.368C224.496 431.425 224.624 430.411 224.752 429.409C224.88 428.406 225.008 427.393 225.136 426.369H228.112C227.984 427.393 227.856 428.406 227.728 429.409C227.621 430.411 227.493 431.425 227.344 432.449H230.512C230.469 432.918 230.427 433.398 230.384 433.889C230.363 434.358 230.32 434.838 230.256 435.329H227.024C226.981 435.819 226.928 436.321 226.864 436.833C226.8 437.345 226.736 437.867 226.672 438.401H229.872C229.808 438.87 229.744 439.35 229.68 439.841C229.616 440.31 229.563 440.79 229.52 441.281H226.32C226.213 442.283 226.096 443.275 225.968 444.257C225.861 445.238 225.744 446.23 225.616 447.233H222.64C222.747 446.23 222.864 445.238 222.992 444.257C223.12 443.275 223.237 442.283 223.344 441.281H220.368C220.261 442.283 220.144 443.275 220.016 444.257C219.888 445.238 219.771 446.23 219.664 447.233H216.656C216.784 446.23 216.901 445.238 217.008 444.257C217.136 443.275 217.253 442.283 217.36 441.281H214.48C214.544 440.79 214.597 440.31 214.64 439.841C214.704 439.35 214.768 438.87 214.832 438.401H217.712C217.776 437.867 217.84 437.345 217.904 436.833C217.968 436.321 218.032 435.819 218.096 435.329H215.216C215.28 434.838 215.333 434.358 215.376 433.889C215.419 433.398 215.461 432.918 215.504 432.449H218.416C218.544 431.425 218.661 430.411 218.768 429.409C218.896 428.406 219.024 427.393 219.152 426.369H222.16ZM221.072 435.329C221.008 435.819 220.944 436.321 220.88 436.833C220.816 437.345 220.752 437.867 220.688 438.401H223.696C223.76 437.867 223.813 437.345 223.856 436.833C223.92 436.321 223.984 435.819 224.048 435.329H221.072ZM234.579 447.233C235.902 445.889 237.182 444.587 238.419 443.329C239.656 442.07 240.766 440.843 241.747 439.649C242.75 438.454 243.528 437.302 244.083 436.193C244.659 435.083 244.947 434.006 244.947 432.961C244.947 432.321 244.84 431.766 244.627 431.297C244.435 430.806 244.158 430.411 243.795 430.113C243.432 429.793 243.027 429.558 242.579 429.409C242.131 429.238 241.651 429.153 241.139 429.153C240.478 429.153 239.912 429.259 239.443 429.473C238.974 429.686 238.59 429.963 238.291 430.305C238.014 430.625 237.8 430.977 237.651 431.361C237.502 431.745 237.427 432.129 237.427 432.513C237.427 433.217 237.534 433.846 237.747 434.401C237.982 434.955 238.291 435.435 238.675 435.841L236.595 437.761C236.062 437.441 235.603 436.982 235.219 436.385C234.856 435.766 234.579 435.115 234.387 434.433C234.195 433.75 234.099 433.142 234.099 432.609C234.099 431.435 234.387 430.347 234.963 429.345C235.56 428.321 236.424 427.489 237.555 426.849C238.707 426.209 240.094 425.889 241.715 425.889C243.08 425.889 244.264 426.198 245.267 426.817C246.291 427.435 247.08 428.267 247.635 429.313C248.211 430.337 248.499 431.457 248.499 432.673C248.499 433.718 248.296 434.742 247.891 435.745C247.486 436.747 246.942 437.739 246.259 438.721C245.598 439.681 244.851 440.641 244.019 441.601C243.208 442.539 242.398 443.489 241.587 444.449L240.051 443.937H249.107V447.233H234.579ZM251.979 440.545C251.979 439.457 252.181 438.518 252.587 437.729C253.013 436.939 253.536 436.278 254.155 435.745C254.773 435.211 255.392 434.806 256.011 434.529C255.413 434.102 254.912 433.601 254.507 433.025C254.123 432.427 253.931 431.67 253.931 430.753C253.931 429.793 254.176 428.95 254.667 428.225C255.157 427.499 255.829 426.934 256.683 426.529C257.536 426.102 258.496 425.889 259.563 425.889C260.629 425.889 261.589 426.102 262.443 426.529C263.296 426.934 263.968 427.489 264.459 428.193C264.971 428.897 265.227 429.697 265.227 430.593C265.227 431.595 265.024 432.395 264.619 432.993C264.213 433.569 263.701 434.081 263.083 434.529C263.723 434.827 264.352 435.243 264.971 435.777C265.611 436.31 266.133 436.971 266.539 437.761C266.944 438.55 267.147 439.478 267.147 440.545C267.147 441.761 266.805 442.902 266.123 443.969C265.461 445.014 264.555 445.867 263.403 446.529C262.272 447.169 260.981 447.489 259.531 447.489C258.08 447.489 256.789 447.169 255.659 446.529C254.528 445.867 253.632 445.014 252.971 443.969C252.309 442.902 251.979 441.761 251.979 440.545ZM255.467 440.417C255.467 441.163 255.648 441.857 256.011 442.497C256.395 443.137 256.885 443.649 257.483 444.033C258.101 444.417 258.784 444.609 259.531 444.609C260.299 444.609 261.003 444.417 261.643 444.033C262.283 443.649 262.795 443.137 263.179 442.497C263.563 441.857 263.755 441.163 263.755 440.417C263.755 439.649 263.573 438.955 263.211 438.337C262.848 437.718 262.357 437.217 261.739 436.833C261.12 436.449 260.437 436.246 259.691 436.225C258.944 436.203 258.251 436.385 257.611 436.769C256.971 437.131 256.448 437.633 256.043 438.273C255.659 438.913 255.467 439.627 255.467 440.417ZM257.227 431.169C257.227 431.766 257.472 432.289 257.963 432.737C258.453 433.163 259.008 433.377 259.627 433.377C260.245 433.377 260.789 433.163 261.259 432.737C261.728 432.289 261.963 431.766 261.963 431.169C261.963 430.465 261.728 429.889 261.259 429.441C260.811 428.971 260.267 428.737 259.627 428.737C259.008 428.737 258.453 428.971 257.963 429.441C257.472 429.889 257.227 430.465 257.227 431.169ZM269.527 447.233L279.735 423.073H279.927L290.135 447.233H286.231L278.807 428.417L281.271 426.785L272.887 447.233H269.527ZM275.735 438.529H283.991L285.175 441.473H274.711L275.735 438.529ZM293.341 426.145H299.037V447.233H295.613V429.441H293.341V426.145ZM306.206 424.001H320.126V427.297H309.63V434.273H318.814V437.537H309.63V447.233H306.206V424.001ZM324.153 426.145H329.849V447.233H326.425V429.441H324.153V426.145ZM142.596 468.001C143.812 468.001 144.932 468.171 145.956 468.513C147.001 468.833 147.886 469.302 148.612 469.921C149.358 470.539 149.934 471.307 150.34 472.225C150.766 473.121 150.98 474.166 150.98 475.361C150.98 476.278 150.841 477.185 150.564 478.081C150.286 478.977 149.838 479.787 149.22 480.513C148.601 481.238 147.79 481.825 146.788 482.273C145.785 482.699 144.537 482.913 143.044 482.913H139.652V491.233H136.228V468.001H142.596ZM142.98 479.649C143.854 479.649 144.58 479.51 145.156 479.233C145.753 478.955 146.212 478.614 146.532 478.209C146.873 477.782 147.108 477.334 147.236 476.865C147.385 476.374 147.46 475.905 147.46 475.457C147.46 475.03 147.385 474.582 147.236 474.113C147.108 473.643 146.873 473.195 146.532 472.769C146.212 472.342 145.774 471.99 145.22 471.713C144.665 471.435 143.982 471.297 143.172 471.297H139.652V479.649H142.98ZM146.916 481.633L152.932 491.233H148.964L142.852 481.729L146.916 481.633ZM175.922 489.185C175.602 489.462 175.154 489.739 174.578 490.017C174.002 490.294 173.352 490.539 172.626 490.753C171.922 490.966 171.197 491.137 170.45 491.265C169.704 491.414 169 491.489 168.338 491.489C166.461 491.489 164.776 491.201 163.282 490.625C161.789 490.049 160.509 489.249 159.442 488.225C158.376 487.201 157.554 486.006 156.978 484.641C156.424 483.254 156.146 481.75 156.146 480.129C156.146 478.145 156.466 476.385 157.106 474.849C157.746 473.313 158.61 472.022 159.698 470.977C160.808 469.91 162.077 469.11 163.506 468.577C164.957 468.022 166.472 467.745 168.05 467.745C169.437 467.745 170.717 467.905 171.89 468.225C173.085 468.545 174.109 468.961 174.962 469.473L173.842 472.609C173.416 472.374 172.882 472.15 172.242 471.937C171.624 471.702 170.984 471.521 170.322 471.393C169.661 471.265 169.053 471.201 168.498 471.201C167.133 471.201 165.906 471.403 164.818 471.809C163.752 472.193 162.834 472.758 162.066 473.505C161.298 474.251 160.701 475.158 160.274 476.225C159.869 477.291 159.666 478.497 159.666 479.841C159.666 481.057 159.88 482.177 160.306 483.201C160.733 484.203 161.33 485.078 162.098 485.825C162.866 486.55 163.784 487.115 164.85 487.521C165.917 487.905 167.101 488.097 168.402 488.097C169.149 488.097 169.885 488.022 170.61 487.873C171.336 487.723 171.954 487.51 172.466 487.233V483.009H167.986V479.713H175.922V489.185ZM188.527 468.001C190.874 468.001 192.719 468.481 194.063 469.441C195.429 470.401 196.111 471.873 196.111 473.857C196.111 475.137 195.813 476.235 195.215 477.153C194.639 478.07 193.829 478.785 192.783 479.297C191.759 479.787 190.543 480.065 189.135 480.129L188.623 478.305C190.266 478.347 191.727 478.635 193.007 479.169C194.309 479.681 195.333 480.406 196.079 481.345C196.847 482.262 197.231 483.361 197.231 484.641C197.231 485.814 197.007 486.827 196.559 487.681C196.133 488.513 195.546 489.195 194.799 489.729C194.074 490.241 193.242 490.625 192.303 490.881C191.386 491.115 190.426 491.233 189.423 491.233H182.351V468.001H188.527ZM189.135 478.049C190.33 478.049 191.205 477.707 191.759 477.025C192.314 476.342 192.591 475.531 192.591 474.593C192.591 473.441 192.229 472.609 191.503 472.097C190.799 471.563 189.861 471.297 188.687 471.297H185.775V478.049H189.135ZM189.263 488.065C190.095 488.065 190.842 487.947 191.503 487.713C192.186 487.457 192.719 487.083 193.103 486.593C193.509 486.081 193.711 485.441 193.711 484.673C193.711 483.819 193.477 483.158 193.007 482.689C192.559 482.198 191.973 481.857 191.247 481.665C190.543 481.451 189.807 481.345 189.039 481.345H185.775V488.065H189.263ZM210.908 486.241V486.209L223.9 469.889H223.932V483.617H226.62V486.241H223.932V491.233H220.508V486.241H210.908ZM220.7 477.537L215.9 483.777L215.42 483.617H220.508V477.025L220.7 477.537ZM238.398 491.329C237.118 491.329 235.934 491.094 234.846 490.625C233.779 490.134 232.851 489.43 232.062 488.513C231.272 487.595 230.654 486.475 230.206 485.153C229.758 483.809 229.534 482.294 229.534 480.609C229.534 478.774 229.747 477.185 230.174 475.841C230.6 474.497 231.198 473.387 231.966 472.513C232.755 471.617 233.694 470.966 234.782 470.561C235.87 470.134 237.075 469.921 238.398 469.921C239.699 469.921 240.883 470.155 241.95 470.625C243.038 471.094 243.976 471.787 244.766 472.705C245.555 473.622 246.163 474.753 246.59 476.097C247.038 477.419 247.262 478.923 247.262 480.609C247.262 482.337 247.038 483.873 246.59 485.217C246.163 486.539 245.544 487.659 244.734 488.577C243.944 489.473 243.016 490.155 241.95 490.625C240.883 491.094 239.699 491.329 238.398 491.329ZM238.366 488.033C239.582 488.033 240.584 487.723 241.374 487.105C242.163 486.465 242.75 485.579 243.134 484.449C243.518 483.297 243.71 481.985 243.71 480.513C243.71 479.083 243.518 477.825 243.134 476.737C242.75 475.627 242.163 474.763 241.374 474.145C240.584 473.505 239.582 473.195 238.366 473.217C237.192 473.195 236.211 473.505 235.422 474.145C234.632 474.763 234.046 475.627 233.662 476.737C233.278 477.846 233.086 479.137 233.086 480.609C233.086 482.038 233.278 483.318 233.662 484.449C234.046 485.579 234.632 486.465 235.422 487.105C236.211 487.723 237.192 488.033 238.366 488.033ZM261.514 470.145H267.21V491.233H263.786V473.441H261.514V470.145ZM279.947 491.489C278.518 491.489 277.216 491.147 276.043 490.465C274.891 489.782 273.974 488.801 273.291 487.521C272.608 486.241 272.267 484.715 272.267 482.945C272.267 481.579 272.534 480.278 273.067 479.041C273.6 477.803 274.315 476.641 275.211 475.553C276.128 474.443 277.152 473.419 278.283 472.481C279.435 471.542 280.63 470.678 281.867 469.889L284.139 472.385C282.411 473.195 280.971 474.134 279.819 475.201C278.667 476.267 277.782 477.355 277.163 478.465C276.544 479.574 276.192 480.619 276.107 481.601L275.243 481.473C275.819 480.257 276.566 479.318 277.483 478.657C278.422 477.974 279.627 477.633 281.099 477.633C282.166 477.633 283.179 477.931 284.139 478.529C285.12 479.105 285.91 479.894 286.507 480.897C287.104 481.899 287.403 483.062 287.403 484.385C287.403 485.835 287.051 487.094 286.347 488.161C285.643 489.227 284.726 490.049 283.595 490.625C282.464 491.201 281.248 491.489 279.947 491.489ZM279.819 488.417C280.587 488.417 281.27 488.257 281.867 487.937C282.486 487.595 282.976 487.126 283.339 486.529C283.702 485.91 283.883 485.195 283.883 484.385C283.883 483.595 283.702 482.913 283.339 482.337C282.976 481.761 282.486 481.313 281.867 480.993C281.248 480.673 280.566 480.513 279.819 480.513C279.072 480.513 278.39 480.673 277.771 480.993C277.174 481.291 276.694 481.707 276.331 482.241C275.968 482.753 275.787 483.329 275.787 483.969V484.545C275.787 485.227 275.958 485.867 276.299 486.465C276.662 487.062 277.152 487.542 277.771 487.905C278.39 488.246 279.072 488.417 279.819 488.417ZM290.95 470.145H296.646V491.233H293.222V473.441H290.95V470.145ZM313.107 491.233C314.429 489.889 315.709 488.587 316.947 487.329C318.184 486.07 319.293 484.843 320.275 483.649C321.277 482.454 322.056 481.302 322.611 480.193C323.187 479.083 323.475 478.006 323.475 476.961C323.475 476.321 323.368 475.766 323.155 475.297C322.963 474.806 322.685 474.411 322.323 474.113C321.96 473.793 321.555 473.558 321.107 473.409C320.659 473.238 320.179 473.153 319.667 473.153C319.005 473.153 318.44 473.259 317.971 473.473C317.501 473.686 317.117 473.963 316.819 474.305C316.541 474.625 316.328 474.977 316.179 475.361C316.029 475.745 315.955 476.129 315.955 476.513C315.955 477.217 316.061 477.846 316.275 478.401C316.509 478.955 316.819 479.435 317.203 479.841L315.123 481.761C314.589 481.441 314.131 480.982 313.747 480.385C313.384 479.766 313.107 479.115 312.915 478.433C312.723 477.75 312.627 477.142 312.627 476.609C312.627 475.435 312.915 474.347 313.491 473.345C314.088 472.321 314.952 471.489 316.083 470.849C317.235 470.209 318.621 469.889 320.243 469.889C321.608 469.889 322.792 470.198 323.795 470.817C324.819 471.435 325.608 472.267 326.163 473.313C326.739 474.337 327.027 475.457 327.027 476.673C327.027 477.718 326.824 478.742 326.419 479.745C326.013 480.747 325.469 481.739 324.787 482.721C324.125 483.681 323.379 484.641 322.547 485.601C321.736 486.539 320.925 487.489 320.115 488.449L318.579 487.937H327.635V491.233H313.107ZM329.903 486.241V486.209L342.895 469.889H342.927V483.617H345.615V486.241H342.927V491.233H339.503V486.241H329.903ZM339.695 477.537L334.895 483.777L334.415 483.617H339.503V477.025L339.695 477.537ZM349.073 470.145H354.769V491.233H351.345V473.441H349.073V470.145Z" fill="white"/>
<path d="M154.852 655.407V678.639H151.428V668.623H139.652V678.639H136.228V655.407H139.652V665.359H151.428V655.407H154.852ZM162.024 655.407H177.288V658.703H165.448V665.327H175.976V668.623H165.448V675.343H177.736V678.639H162.024V655.407ZM181.713 655.407H186.065L201.169 678.639H196.785L181.713 655.407ZM181.393 678.639L189.489 665.935L191.153 669.295L185.617 678.639H181.393ZM191.281 664.687L196.753 655.407H200.881L193.105 667.599L191.281 664.687ZM222.16 657.775C222.011 658.799 221.872 659.812 221.744 660.815C221.637 661.818 221.509 662.831 221.36 663.855H224.368C224.496 662.831 224.624 661.818 224.752 660.815C224.88 659.812 225.008 658.799 225.136 657.775H228.112C227.984 658.799 227.856 659.812 227.728 660.815C227.621 661.818 227.493 662.831 227.344 663.855H230.512C230.469 664.324 230.427 664.804 230.384 665.295C230.363 665.764 230.32 666.244 230.256 666.735H227.024C226.981 667.226 226.928 667.727 226.864 668.239C226.8 668.751 226.736 669.274 226.672 669.807H229.872C229.808 670.276 229.744 670.756 229.68 671.247C229.616 671.716 229.563 672.196 229.52 672.687H226.32C226.213 673.69 226.096 674.682 225.968 675.663C225.861 676.644 225.744 677.636 225.616 678.639H222.64C222.747 677.636 222.864 676.644 222.992 675.663C223.12 674.682 223.237 673.69 223.344 672.687H220.368C220.261 673.69 220.144 674.682 220.016 675.663C219.888 676.644 219.771 677.636 219.664 678.639H216.656C216.784 677.636 216.901 676.644 217.008 675.663C217.136 674.682 217.253 673.69 217.36 672.687H214.48C214.544 672.196 214.597 671.716 214.64 671.247C214.704 670.756 214.768 670.276 214.832 669.807H217.712C217.776 669.274 217.84 668.751 217.904 668.239C217.968 667.727 218.032 667.226 218.096 666.735H215.216C215.28 666.244 215.333 665.764 215.376 665.295C215.419 664.804 215.461 664.324 215.504 663.855H218.416C218.544 662.831 218.661 661.818 218.768 660.815C218.896 659.812 219.024 658.799 219.152 657.775H222.16ZM221.072 666.735C221.008 667.226 220.944 667.727 220.88 668.239C220.816 668.751 220.752 669.274 220.688 669.807H223.696C223.76 669.274 223.813 668.751 223.856 668.239C223.92 667.727 223.984 667.226 224.048 666.735H221.072ZM236.115 655.407H250.035V658.703H239.539V665.679H248.723V668.943H239.539V678.639H236.115V655.407ZM255.662 655.407H269.582V658.703H259.086V665.679H268.27V668.943H259.086V678.639H255.662V655.407ZM275.208 655.407H289.128V658.703H278.632V665.679H287.816V668.943H278.632V678.639H275.208V655.407ZM294.754 655.407H308.674V658.703H298.178V665.679H307.362V668.943H298.178V678.639H294.754V655.407ZM314.3 655.407H328.22V658.703H317.724V665.679H326.908V668.943H317.724V678.639H314.3V655.407ZM333.847 655.407H347.767V658.703H337.271V665.679H346.455V668.943H337.271V678.639H333.847V655.407ZM142.596 699.407C143.812 699.407 144.932 699.578 145.956 699.919C147.001 700.239 147.887 700.708 148.612 701.327C149.359 701.946 149.935 702.714 150.34 703.631C150.767 704.527 150.98 705.572 150.98 706.767C150.98 707.684 150.841 708.591 150.564 709.487C150.287 710.383 149.839 711.194 149.22 711.919C148.601 712.644 147.791 713.231 146.788 713.679C145.785 714.106 144.537 714.319 143.044 714.319H139.652V722.639H136.228V699.407H142.596ZM142.98 711.055C143.855 711.055 144.58 710.916 145.156 710.639C145.753 710.362 146.212 710.02 146.532 709.615C146.873 709.188 147.108 708.74 147.236 708.271C147.385 707.78 147.46 707.311 147.46 706.863C147.46 706.436 147.385 705.988 147.236 705.519C147.108 705.05 146.873 704.602 146.532 704.175C146.212 703.748 145.775 703.396 145.22 703.119C144.665 702.842 143.983 702.703 143.172 702.703H139.652V711.055H142.98ZM146.916 713.039L152.932 722.639H148.964L142.852 713.135L146.916 713.039ZM175.923 720.591C175.603 720.868 175.155 721.146 174.579 721.423C174.003 721.7 173.352 721.946 172.627 722.159C171.923 722.372 171.197 722.543 170.451 722.671C169.704 722.82 169 722.895 168.339 722.895C166.461 722.895 164.776 722.607 163.283 722.031C161.789 721.455 160.509 720.655 159.443 719.631C158.376 718.607 157.555 717.412 156.979 716.047C156.424 714.66 156.147 713.156 156.147 711.535C156.147 709.551 156.467 707.791 157.107 706.255C157.747 704.719 158.611 703.428 159.699 702.383C160.808 701.316 162.077 700.516 163.507 699.983C164.957 699.428 166.472 699.151 168.051 699.151C169.437 699.151 170.717 699.311 171.891 699.631C173.085 699.951 174.109 700.367 174.963 700.879L173.843 704.015C173.416 703.78 172.883 703.556 172.243 703.343C171.624 703.108 170.984 702.927 170.323 702.799C169.661 702.671 169.053 702.607 168.499 702.607C167.133 702.607 165.907 702.81 164.819 703.215C163.752 703.599 162.835 704.164 162.067 704.911C161.299 705.658 160.701 706.564 160.275 707.631C159.869 708.698 159.667 709.903 159.667 711.247C159.667 712.463 159.88 713.583 160.307 714.607C160.733 715.61 161.331 716.484 162.099 717.231C162.867 717.956 163.784 718.522 164.851 718.927C165.917 719.311 167.101 719.503 168.403 719.503C169.149 719.503 169.885 719.428 170.611 719.279C171.336 719.13 171.955 718.916 172.467 718.639V714.415H167.987V711.119H175.923V720.591ZM188.528 699.407C190.874 699.407 192.72 699.887 194.064 700.847C195.429 701.807 196.112 703.279 196.112 705.263C196.112 706.543 195.813 707.642 195.216 708.559C194.64 709.476 193.829 710.191 192.784 710.703C191.76 711.194 190.544 711.471 189.136 711.535L188.624 709.711C190.266 709.754 191.728 710.042 193.008 710.575C194.309 711.087 195.333 711.812 196.08 712.751C196.848 713.668 197.232 714.767 197.232 716.047C197.232 717.22 197.008 718.234 196.56 719.087C196.133 719.919 195.546 720.602 194.8 721.135C194.074 721.647 193.242 722.031 192.304 722.287C191.386 722.522 190.426 722.639 189.424 722.639H182.352V699.407H188.528ZM189.136 709.455C190.33 709.455 191.205 709.114 191.76 708.431C192.314 707.748 192.592 706.938 192.592 705.999C192.592 704.847 192.229 704.015 191.504 703.503C190.8 702.97 189.861 702.703 188.688 702.703H185.776V709.455H189.136ZM189.264 719.471C190.096 719.471 190.842 719.354 191.504 719.119C192.186 718.863 192.72 718.49 193.104 717.999C193.509 717.487 193.712 716.847 193.712 716.079C193.712 715.226 193.477 714.564 193.008 714.095C192.56 713.604 191.973 713.263 191.248 713.071C190.544 712.858 189.808 712.751 189.04 712.751H185.776V719.471H189.264ZM220.508 722.735C219.228 722.735 218.044 722.5 216.956 722.031C215.889 721.54 214.961 720.836 214.172 719.919C213.383 719.002 212.764 717.882 212.316 716.559C211.868 715.215 211.644 713.7 211.644 712.015C211.644 710.18 211.857 708.591 212.284 707.247C212.711 705.903 213.308 704.794 214.076 703.919C214.865 703.023 215.804 702.372 216.892 701.967C217.98 701.54 219.185 701.327 220.508 701.327C221.809 701.327 222.993 701.562 224.06 702.031C225.148 702.5 226.087 703.194 226.876 704.111C227.665 705.028 228.273 706.159 228.7 707.503C229.148 708.826 229.372 710.33 229.372 712.015C229.372 713.743 229.148 715.279 228.7 716.623C228.273 717.946 227.655 719.066 226.844 719.983C226.055 720.879 225.127 721.562 224.06 722.031C222.993 722.5 221.809 722.735 220.508 722.735ZM220.476 719.439C221.692 719.439 222.695 719.13 223.484 718.511C224.273 717.871 224.86 716.986 225.244 715.855C225.628 714.703 225.82 713.391 225.82 711.919C225.82 710.49 225.628 709.231 225.244 708.143C224.86 707.034 224.273 706.17 223.484 705.551C222.695 704.911 221.692 704.602 220.476 704.623C219.303 704.602 218.321 704.911 217.532 705.551C216.743 706.17 216.156 707.034 215.772 708.143C215.388 709.252 215.196 710.543 215.196 712.015C215.196 713.444 215.388 714.724 215.772 715.855C216.156 716.986 216.743 717.871 217.532 718.511C218.321 719.13 219.303 719.439 220.476 719.439ZM251.944 722.735C250.664 722.735 249.48 722.5 248.392 722.031C247.325 721.54 246.397 720.836 245.608 719.919C244.819 719.002 244.2 717.882 243.752 716.559C243.304 715.215 243.08 713.7 243.08 712.015C243.08 710.18 243.293 708.591 243.72 707.247C244.147 705.903 244.744 704.794 245.512 703.919C246.301 703.023 247.24 702.372 248.328 701.967C249.416 701.54 250.621 701.327 251.944 701.327C253.245 701.327 254.429 701.562 255.496 702.031C256.584 702.5 257.523 703.194 258.312 704.111C259.101 705.028 259.709 706.159 260.136 707.503C260.584 708.826 260.808 710.33 260.808 712.015C260.808 713.743 260.584 715.279 260.136 716.623C259.709 717.946 259.091 719.066 258.28 719.983C257.491 720.879 256.563 721.562 255.496 722.031C254.429 722.5 253.245 722.735 251.944 722.735ZM251.912 719.439C253.128 719.439 254.131 719.13 254.92 718.511C255.709 717.871 256.296 716.986 256.68 715.855C257.064 714.703 257.256 713.391 257.256 711.919C257.256 710.49 257.064 709.231 256.68 708.143C256.296 707.034 255.709 706.17 254.92 705.551C254.131 704.911 253.128 704.602 251.912 704.623C250.739 704.602 249.757 704.911 248.968 705.551C248.179 706.17 247.592 707.034 247.208 708.143C246.824 709.252 246.632 710.543 246.632 712.015C246.632 713.444 246.824 714.724 247.208 715.855C247.592 716.986 248.179 717.871 248.968 718.511C249.757 719.13 250.739 719.439 251.912 719.439ZM283.38 722.735C282.1 722.735 280.916 722.5 279.828 722.031C278.762 721.54 277.834 720.836 277.044 719.919C276.255 719.002 275.636 717.882 275.188 716.559C274.74 715.215 274.516 713.7 274.516 712.015C274.516 710.18 274.73 708.591 275.156 707.247C275.583 705.903 276.18 704.794 276.948 703.919C277.738 703.023 278.676 702.372 279.764 701.967C280.852 701.54 282.058 701.327 283.38 701.327C284.682 701.327 285.866 701.562 286.932 702.031C288.02 702.5 288.959 703.194 289.748 704.111C290.538 705.028 291.146 706.159 291.572 707.503C292.02 708.826 292.244 710.33 292.244 712.015C292.244 713.743 292.02 715.279 291.572 716.623C291.146 717.946 290.527 719.066 289.716 719.983C288.927 720.879 287.999 721.562 286.932 722.031C285.866 722.5 284.682 722.735 283.38 722.735ZM283.348 719.439C284.564 719.439 285.567 719.13 286.356 718.511C287.146 717.871 287.732 716.986 288.116 715.855C288.5 714.703 288.692 713.391 288.692 711.919C288.692 710.49 288.5 709.231 288.116 708.143C287.732 707.034 287.146 706.17 286.356 705.551C285.567 704.911 284.564 704.602 283.348 704.623C282.175 704.602 281.194 704.911 280.404 705.551C279.615 706.17 279.028 707.034 278.644 708.143C278.26 709.252 278.068 710.543 278.068 712.015C278.068 713.444 278.26 714.724 278.644 715.855C279.028 716.986 279.615 717.871 280.404 718.511C281.194 719.13 282.175 719.439 283.348 719.439Z" fill="white"/>
<rect x="968.366" y="0.506104" width="951.634" height="1080" fill="white"/>
<path d="M1924.78 24.9891L1789.1 80.0291L1793.45 58.5251L1924.78 108.445V152.477L1727.66 66.4611L1924.78 -19.5549V24.9891ZM1848.24 184.305V220.145H1736.37V184.305H1848.24ZM1887.92 183.537C1893.21 183.537 1897.56 185.585 1900.97 189.681C1904.39 193.948 1906.09 198.47 1906.09 203.249C1906.09 208.028 1904.39 212.38 1900.97 216.305C1897.56 220.401 1893.21 222.449 1887.92 222.449C1882.63 222.449 1878.28 220.401 1874.86 216.305C1871.62 212.38 1870 208.028 1870 203.249C1870 198.47 1871.62 193.948 1874.86 189.681C1878.28 185.585 1882.63 183.537 1887.92 183.537ZM1733.29 307.743C1733.29 297.332 1735.68 288.031 1740.46 279.839C1745.41 271.647 1752.49 265.162 1761.71 260.383C1770.93 255.775 1781.85 253.471 1794.48 253.471C1807.11 253.471 1817.86 256.031 1826.73 261.151C1835.61 266.271 1842.35 273.268 1846.96 282.143C1851.57 291.018 1853.87 301.087 1853.87 312.351C1853.87 319.519 1852.76 326.346 1850.54 332.831C1848.32 339.487 1844.91 345.034 1840.3 349.471H1829.04H1938.35V385.055H1736.37V349.215H1758.13L1750.45 352.031C1745.67 346.228 1741.57 339.743 1738.16 332.575C1734.92 325.407 1733.29 317.13 1733.29 307.743ZM1763.5 319.519C1763.5 324.298 1764.1 328.479 1765.29 332.063C1766.66 335.818 1768.54 339.06 1770.93 341.791C1773.49 344.692 1776.64 347.167 1780.4 349.215H1807.79C1811.54 347.85 1814.7 345.716 1817.26 342.815C1819.99 340.084 1822.04 336.671 1823.41 332.575C1824.94 328.65 1825.71 324.298 1825.71 319.519C1825.71 314.228 1824.34 309.279 1821.61 304.671C1819.05 300.234 1815.47 296.65 1810.86 293.919C1806.25 291.188 1800.96 289.823 1794.99 289.823C1789.02 289.823 1783.64 291.188 1778.86 293.919C1774.08 296.65 1770.33 300.234 1767.6 304.671C1764.87 309.279 1763.5 314.228 1763.5 319.519ZM1733.29 482.085C1733.29 468.432 1735.85 456.826 1740.97 447.269C1746.09 437.882 1753.18 430.714 1762.22 425.765C1771.27 420.816 1781.68 418.341 1793.45 418.341C1804.72 418.341 1814.87 421.242 1823.92 427.045C1832.96 432.848 1840.13 440.613 1845.42 450.341C1850.88 460.069 1853.61 470.906 1853.61 482.853C1853.61 498.896 1848.92 512.037 1839.53 522.277C1830.32 532.688 1816.92 539.429 1799.34 542.501L1771.69 455.461L1791.15 447.525L1812.4 510.501L1809.07 503.077C1813.51 501.712 1817.35 499.237 1820.59 495.653C1824 492.24 1825.71 487.034 1825.71 480.037C1825.71 474.746 1824.43 470.053 1821.87 465.957C1819.48 462.032 1815.98 458.96 1811.37 456.741C1806.94 454.693 1801.65 453.669 1795.5 453.669C1788.5 453.669 1782.62 454.949 1777.84 457.509C1773.23 460.069 1769.73 463.568 1767.34 468.005C1764.95 472.442 1763.76 477.392 1763.76 482.853C1763.76 486.778 1764.44 490.533 1765.81 494.117C1767.17 497.872 1768.96 501.541 1771.18 505.125L1744.56 520.997C1741.14 515.024 1738.41 508.538 1736.37 501.541C1734.32 494.714 1733.29 488.229 1733.29 482.085ZM1793.71 564.961C1805.14 564.961 1815.38 567.606 1824.43 572.897C1833.48 578.358 1840.56 585.953 1845.68 595.681C1850.97 605.409 1853.61 616.588 1853.61 629.217C1853.61 642.017 1850.97 653.11 1845.68 662.497C1840.56 671.884 1833.48 679.052 1824.43 684.001C1815.38 689.121 1805.14 691.681 1793.71 691.681C1782.28 691.681 1771.95 689.121 1762.73 684.001C1753.69 679.052 1746.52 671.884 1741.23 662.497C1735.94 653.11 1733.29 641.846 1733.29 628.705C1733.29 616.417 1735.68 605.409 1740.46 595.681C1745.24 586.124 1752.15 578.614 1761.2 573.153C1770.24 567.692 1781.08 564.961 1793.71 564.961ZM1793.45 601.057C1787.65 601.057 1782.36 602.252 1777.58 604.641C1772.97 607.03 1769.3 610.273 1766.57 614.369C1763.84 618.465 1762.48 623.073 1762.48 628.193C1762.48 633.825 1763.84 638.689 1766.57 642.785C1769.3 646.881 1772.97 650.038 1777.58 652.257C1782.36 654.476 1787.65 655.585 1793.45 655.585C1799.43 655.585 1804.72 654.476 1809.33 652.257C1813.93 650.038 1817.6 646.881 1820.33 642.785C1823.06 638.689 1824.43 633.825 1824.43 628.193C1824.43 623.073 1823.06 618.465 1820.33 614.369C1817.6 610.273 1813.93 607.03 1809.33 604.641C1804.72 602.252 1799.43 601.057 1793.45 601.057ZM1623.21 97.1811C1627.14 90.0131 1630.38 82.6744 1632.94 75.1651C1635.5 67.8264 1636.78 60.9144 1636.78 54.4291C1636.78 46.4077 1635.16 40.0931 1631.92 35.4851C1628.68 30.8771 1623.81 28.5731 1617.33 28.5731C1612.89 28.5731 1608.88 30.2797 1605.29 33.6931C1601.88 37.2771 1598.81 41.7997 1596.08 47.2611C1593.35 52.8931 1590.87 58.6957 1588.65 64.6691C1586.61 70.1304 1584.13 75.5064 1581.23 80.7971C1578.5 86.2584 1575 91.1224 1570.73 95.3891C1566.64 99.6557 1561.43 103.069 1555.12 105.629C1548.97 108.189 1541.38 109.469 1532.33 109.469C1522.78 109.469 1513.9 106.994 1505.71 102.045C1497.52 97.0957 1490.86 89.8424 1485.74 80.2851C1480.79 70.7277 1478.32 58.9517 1478.32 44.9571C1478.32 37.7891 1479 30.4504 1480.37 22.9411C1481.9 15.6024 1484.12 8.34905 1487.02 1.18105C1490.09 -5.98695 1493.93 -12.8989 1498.54 -19.5549L1527.47 -3.17095C1524.23 1.26639 1521.33 6.04505 1518.77 11.1651C1516.38 16.4557 1514.5 21.7464 1513.13 27.0371C1511.77 32.3277 1511.09 37.1917 1511.09 41.6291C1511.09 46.0664 1511.68 50.5037 1512.88 54.9411C1514.24 59.5491 1516.46 63.3037 1519.53 66.2051C1522.61 69.2771 1526.87 70.8131 1532.33 70.8131C1536.09 70.8131 1539.5 69.5331 1542.57 66.9731C1545.65 64.5837 1548.46 61.2557 1551.02 56.9891C1553.58 52.8931 1555.8 48.3704 1557.68 43.4211C1559.9 37.6184 1562.46 31.6451 1565.36 25.5011C1568.26 19.3571 1571.76 13.5544 1575.85 8.09305C1580.12 2.80239 1585.33 -1.54961 1591.47 -4.96295C1597.78 -8.20561 1605.46 -9.82695 1614.51 -9.82695C1625.43 -9.82695 1634.9 -7.43761 1642.93 -2.65895C1650.95 2.29039 1657.26 9.20239 1661.87 18.0771C1666.65 26.9517 1669.29 37.1917 1669.81 48.7971C1669.81 63.9864 1668.01 76.2744 1664.43 85.6611C1660.85 95.2184 1656.58 103.752 1651.63 111.261L1623.21 97.1811ZM1641.39 155.551V191.391H1592.75V218.527H1564.85V191.391H1480.37V155.551H1564.85V138.143H1592.75V155.551H1641.39ZM1592.24 283.181L1561.52 286.509L1566.13 285.741C1572.78 288.984 1578.41 293.421 1583.02 299.053C1587.8 304.685 1591.47 310.232 1594.03 315.693C1596.59 321.325 1597.87 325.592 1597.87 328.493L1562.03 326.701C1563.05 318.338 1561.69 311.17 1557.93 305.197C1554.18 299.224 1549.23 294.616 1543.09 291.373C1536.94 288.13 1530.63 286.509 1524.14 286.509H1480.37V250.925H1592.24V283.181ZM1474.99 397.141C1474.99 387.072 1478.06 378.624 1484.21 371.797C1490.52 364.97 1498.63 361.386 1508.53 361.045H1592.24V396.885H1521.84C1516.89 397.226 1512.88 398.506 1509.81 400.725C1506.9 402.944 1505.45 406.698 1505.45 411.989C1505.45 417.28 1507.25 421.802 1510.83 425.557C1514.41 429.482 1519.28 432.469 1525.42 434.517C1531.74 436.736 1538.82 437.845 1546.67 437.845H1592.24V473.685H1480.37V441.173L1500.85 438.357L1498.54 438.869C1493.93 436.309 1489.84 433.066 1486.25 429.141C1482.67 425.216 1479.94 420.522 1478.06 415.061C1476.01 409.77 1474.99 403.797 1474.99 397.141ZM1490.35 610.641C1486.42 605.692 1483.27 599.462 1480.88 591.953C1478.49 584.614 1477.29 577.361 1477.29 570.193C1477.29 557.393 1479.6 546.214 1484.21 536.657C1488.98 527.27 1495.73 519.932 1504.43 514.641C1513.3 509.521 1523.97 506.961 1536.43 506.961C1548.89 506.961 1559.47 509.777 1568.17 515.409C1577.05 521.041 1583.79 528.38 1588.4 537.425C1593.01 546.641 1595.31 556.284 1595.31 566.353C1595.31 576.422 1593.94 585.126 1591.21 592.465C1588.48 599.974 1584.9 606.374 1580.46 611.665L1557.42 594.257C1559.3 591.868 1561.18 588.54 1563.05 584.273C1565.1 580.177 1566.13 575.313 1566.13 569.681C1566.13 564.732 1564.85 560.209 1562.29 556.113C1559.73 552.017 1556.23 548.774 1551.79 546.385C1547.35 543.996 1542.23 542.801 1536.43 542.801C1530.97 542.801 1525.93 544.081 1521.33 546.641C1516.72 549.201 1513.05 552.7 1510.32 557.137C1507.76 561.745 1506.48 567.121 1506.48 573.265C1506.48 577.19 1506.99 580.774 1508.01 584.017C1509.21 587.43 1510.83 590.332 1512.88 592.721L1490.35 610.641ZM1641.39 653.781V689.621H1592.75V716.757H1564.85V689.621H1480.37V653.781H1564.85V636.373H1592.75V653.781H1641.39ZM1474.99 785.251C1474.99 775.182 1478.06 766.734 1484.21 759.907C1490.52 753.08 1498.63 749.496 1508.53 749.155H1592.24V784.995H1521.84C1516.89 785.336 1512.88 786.616 1509.81 788.835C1506.9 791.054 1505.45 794.808 1505.45 800.099C1505.45 805.39 1507.25 809.912 1510.83 813.667C1514.41 817.592 1519.28 820.579 1525.42 822.627C1531.74 824.846 1538.82 825.955 1546.67 825.955H1592.24V861.795H1480.37V829.283L1500.85 826.467L1498.54 826.979C1493.93 824.419 1489.84 821.176 1486.25 817.251C1482.67 813.326 1479.94 808.632 1478.06 803.171C1476.01 797.88 1474.99 791.907 1474.99 785.251ZM1592.24 936.031L1561.52 939.359L1566.13 938.591C1572.78 941.834 1578.41 946.271 1583.02 951.903C1587.8 957.535 1591.47 963.082 1594.03 968.543C1596.59 974.175 1597.87 978.442 1597.87 981.343L1562.03 979.551C1563.05 971.188 1561.69 964.02 1557.93 958.047C1554.18 952.074 1549.23 947.466 1543.09 944.223C1536.94 940.98 1530.63 939.359 1524.14 939.359H1480.37V903.775H1592.24V936.031ZM1477.29 1063.94C1477.29 1050.28 1479.85 1038.68 1484.97 1029.12C1490.09 1019.73 1497.18 1012.56 1506.22 1007.62C1515.27 1002.67 1525.68 1000.19 1537.45 1000.19C1548.72 1000.19 1558.87 1003.09 1567.92 1008.9C1576.96 1014.7 1584.13 1022.46 1589.42 1032.19C1594.88 1041.92 1597.61 1052.76 1597.61 1064.7C1597.61 1080.75 1592.92 1093.89 1583.53 1104.13C1574.32 1114.54 1560.92 1121.28 1543.34 1124.35L1515.69 1037.31L1535.15 1029.38L1556.4 1092.35L1553.07 1084.93C1557.51 1083.56 1561.35 1081.09 1564.59 1077.5C1568 1074.09 1569.71 1068.88 1569.71 1061.89C1569.71 1056.6 1568.43 1051.9 1565.87 1047.81C1563.48 1043.88 1559.98 1040.81 1555.37 1038.59C1550.94 1036.54 1545.65 1035.52 1539.5 1035.52C1532.5 1035.52 1526.62 1036.8 1521.84 1039.36C1517.23 1041.92 1513.73 1045.42 1511.34 1049.86C1508.95 1054.29 1507.76 1059.24 1507.76 1064.7C1507.76 1068.63 1508.44 1072.38 1509.81 1075.97C1511.17 1079.72 1512.96 1083.39 1515.18 1086.98L1488.56 1102.85C1485.14 1096.87 1482.41 1090.39 1480.37 1083.39C1478.32 1076.56 1477.29 1070.08 1477.29 1063.94ZM1224.37 -3.42695L1420.46 -3.42695V-3.17095L1271.98 101.533L1275.57 85.6611L1420.46 190.109V190.621L1224.37 190.621V153.501L1336.75 153.501L1317.55 155.805L1226.93 92.0611V91.5491L1317.55 26.0131L1335.21 32.4131L1224.37 32.4131V-3.42695ZM1221.29 285.659C1221.29 275.248 1223.34 265.776 1227.44 257.243C1231.7 248.88 1238.19 242.224 1246.89 237.275C1255.6 232.326 1266.69 229.851 1280.17 229.851C1292.8 229.851 1303.73 232.411 1312.94 237.531C1322.16 242.651 1329.24 249.392 1334.19 257.755C1339.31 266.118 1341.87 274.992 1341.87 284.379C1341.87 295.472 1339.99 303.835 1336.24 309.467C1332.65 315.27 1328.64 320.048 1324.21 323.803L1319.85 322.267L1336.24 325.595V358.875H1224.37V323.035H1248.69L1241.01 325.851C1241.01 325.51 1239.98 324.486 1237.93 322.779C1236.06 321.072 1233.75 318.512 1231.02 315.099C1228.46 311.856 1226.24 307.76 1224.37 302.811C1222.32 298.032 1221.29 292.315 1221.29 285.659ZM1250.48 295.899C1250.48 300.166 1251.08 304.006 1252.27 307.419C1253.64 310.832 1255.51 313.819 1257.9 316.379C1260.46 318.939 1263.62 321.158 1267.37 323.035H1294.77C1298.52 321.67 1301.68 319.622 1304.24 316.891C1306.97 314.16 1309.02 310.918 1310.38 307.163C1311.92 303.408 1312.69 299.227 1312.69 294.619C1312.69 289.499 1311.32 284.72 1308.59 280.283C1306.03 276.016 1302.45 272.603 1297.84 270.043C1293.23 267.483 1287.94 266.203 1281.97 266.203C1275.99 266.203 1270.62 267.568 1265.84 270.299C1261.06 273.03 1257.3 276.614 1254.57 281.051C1251.84 285.659 1250.48 290.608 1250.48 295.899ZM1336.24 433.181L1305.52 436.509L1310.13 435.741C1316.78 438.984 1322.41 443.421 1327.02 449.053C1331.8 454.685 1335.47 460.232 1338.03 465.693C1340.59 471.325 1341.87 475.592 1341.87 478.493L1306.03 476.701C1307.05 468.338 1305.69 461.17 1301.93 455.197C1298.18 449.224 1293.23 444.616 1287.09 441.373C1280.94 438.13 1274.63 436.509 1268.14 436.509H1224.37V400.925H1336.24V433.181ZM1224.37 511.045H1426.35V546.885H1224.37V511.045ZM1300.4 575.301L1224.37 625.989V584.261L1279.92 551.749L1300.4 575.301ZM1255.34 536.133L1289.39 532.549L1339.05 600.133L1319.85 621.893L1255.34 536.133ZM1218.99 692.011C1218.99 681.942 1222.06 673.494 1228.21 666.667C1234.52 659.84 1242.63 656.256 1252.53 655.915H1336.24V691.755H1265.84C1260.89 692.096 1256.88 693.376 1253.81 695.595C1250.9 697.814 1249.45 701.568 1249.45 706.859C1249.45 712.15 1251.25 716.672 1254.83 720.427C1258.41 724.352 1263.28 727.339 1269.42 729.387C1275.74 731.606 1282.82 732.715 1290.67 732.715H1336.24V768.555H1224.37V736.043L1244.85 733.227L1242.54 733.739C1237.93 731.179 1233.84 727.936 1230.25 724.011C1226.67 720.086 1223.94 715.392 1222.06 709.931C1220.01 704.64 1218.99 698.667 1218.99 692.011ZM1221.29 880.679C1221.29 874.023 1222.49 867.452 1224.88 860.967C1227.44 854.652 1231.02 849.362 1235.63 845.095L1246.13 846.119H1170.61V810.535H1338.8V841.255L1317.04 846.375L1324.72 843.559C1329.67 849.362 1333.76 855.847 1337.01 863.015C1340.25 870.183 1341.87 878.46 1341.87 887.847C1341.87 898.258 1339.4 907.559 1334.45 915.751C1329.67 923.943 1322.67 930.343 1313.45 934.951C1304.41 939.73 1293.49 942.119 1280.69 942.119C1268.06 942.119 1257.3 939.474 1248.43 934.183C1239.56 928.892 1232.81 921.639 1228.21 912.423C1223.6 903.207 1221.29 892.626 1221.29 880.679ZM1249.45 873.511C1249.45 879.314 1250.73 884.604 1253.29 889.383C1255.85 894.332 1259.44 898.258 1264.05 901.159C1268.82 904.231 1274.2 905.767 1280.17 905.767C1286.49 905.767 1291.95 904.402 1296.56 901.671C1301.34 899.111 1305.01 895.527 1307.57 890.919C1310.3 886.482 1311.66 881.532 1311.66 876.071C1311.66 871.292 1310.98 867.026 1309.61 863.271C1308.42 859.687 1306.54 856.444 1303.98 853.543C1301.59 850.812 1298.52 848.423 1294.77 846.375H1267.37C1263.79 847.74 1260.63 849.703 1257.9 852.263C1255.17 854.823 1253.04 857.895 1251.5 861.479C1250.14 865.234 1249.45 869.244 1249.45 873.511ZM1156.78 -3.42695V33.6931L1004.21 33.6931V122.269H968.366V-3.42695L1156.78 -3.42695ZM965.294 206.909C965.294 196.498 967.342 187.026 971.438 178.493C975.705 170.13 982.19 163.474 990.894 158.525C999.598 153.576 1010.69 151.101 1024.17 151.101C1036.8 151.101 1047.73 153.661 1056.94 158.781C1066.16 163.901 1073.24 170.642 1078.19 179.005C1083.31 187.368 1085.87 196.242 1085.87 205.629C1085.87 216.722 1083.99 225.085 1080.24 230.717C1076.65 236.52 1072.64 241.298 1068.21 245.053L1063.85 243.517L1080.24 246.845V280.125H968.366V244.285H992.686L985.006 247.101C985.006 246.76 983.982 245.736 981.934 244.029C980.057 242.322 977.753 239.762 975.022 236.349C972.462 233.106 970.243 229.01 968.366 224.061C966.318 219.282 965.294 213.565 965.294 206.909ZM994.478 217.149C994.478 221.416 995.075 225.256 996.27 228.669C997.635 232.082 999.513 235.069 1001.9 237.629C1004.46 240.189 1007.62 242.408 1011.37 244.285H1038.77C1042.52 242.92 1045.68 240.872 1048.24 238.141C1050.97 235.41 1053.02 232.168 1054.38 228.413C1055.92 224.658 1056.69 220.477 1056.69 215.869C1056.69 210.749 1055.32 205.97 1052.59 201.533C1050.03 197.266 1046.45 193.853 1041.84 191.293C1037.23 188.733 1031.94 187.453 1025.97 187.453C1019.99 187.453 1014.62 188.818 1009.84 191.549C1005.06 194.28 1001.3 197.864 998.574 202.301C995.843 206.909 994.478 211.858 994.478 217.149ZM1080.24 354.687L1060.27 357.503L1062.06 356.991C1069.06 360.916 1074.69 366.463 1078.96 373.631C1083.4 380.799 1085.61 389.588 1085.61 399.999C1085.61 410.58 1082.46 419.37 1076.14 426.367C1070 433.535 1061.98 437.204 1052.08 437.375H968.366V401.535H1038.77C1043.72 401.364 1047.64 399.999 1050.54 397.439C1053.61 395.05 1055.15 390.954 1055.15 385.151C1055.15 379.69 1053.36 374.911 1049.77 370.815C1046.19 366.719 1041.33 363.562 1035.18 361.343C1029.04 359.124 1021.96 358.015 1013.93 358.015H968.366V322.175H1080.24V354.687ZM912.046 537.151C912.046 527.082 913.241 518.548 915.63 511.551C918.019 504.724 920.921 498.922 924.334 494.143C927.747 489.364 930.99 485.098 934.062 481.343L958.638 502.335C955.054 506.26 951.641 510.783 948.398 515.903C944.985 521.194 943.278 528.106 943.278 536.639C943.278 542.271 944.302 547.476 946.35 552.255C948.227 557.204 951.043 561.13 954.798 564.031C958.553 567.103 963.246 568.639 968.878 568.639H993.454L987.054 569.919C981.251 567.188 976.131 562.239 971.694 555.071C967.427 547.903 965.294 538.516 965.294 526.911C965.294 516.842 967.854 507.455 972.974 498.751C978.265 490.218 985.347 483.391 994.222 478.271C1003.27 473.151 1013.51 470.591 1024.94 470.591C1036.72 470.591 1047.13 473.322 1056.17 478.783C1065.39 484.244 1072.64 491.327 1077.93 500.031C1083.22 508.735 1085.87 517.951 1085.87 527.679C1085.87 537.407 1084.42 545.77 1081.52 552.767C1078.79 559.935 1075.37 565.311 1071.28 568.895L1067.95 567.615L1080.24 571.455V604.479L968.366 604.479C957.443 604.479 947.801 601.407 939.438 595.263C930.905 589.119 924.249 580.927 919.47 570.687C914.521 560.618 912.046 549.439 912.046 537.151ZM1025.97 506.687C1019.99 506.687 1014.62 508.052 1009.84 510.783C1005.06 513.514 1001.3 517.183 998.574 521.791C995.843 526.57 994.478 531.86 994.478 537.663C994.478 542.612 995.075 546.964 996.27 550.719C997.635 554.644 999.513 558.058 1001.9 560.959C1004.46 564.031 1007.62 566.591 1011.37 568.639H1038.77C1042.52 567.103 1045.68 564.799 1048.24 561.727C1050.97 558.655 1053.02 555.071 1054.38 550.975C1055.92 547.05 1056.69 542.612 1056.69 537.663C1056.69 531.86 1055.32 526.57 1052.59 521.791C1050.03 517.183 1046.45 513.514 1041.84 510.783C1037.23 508.052 1031.94 506.687 1025.97 506.687ZM962.99 682.511C962.99 672.442 966.062 663.994 972.206 657.167C978.521 650.34 986.627 646.756 996.526 646.415L1080.24 646.415V682.255H1009.84C1004.89 682.596 1000.88 683.876 997.806 686.095C994.905 688.314 993.454 692.068 993.454 697.359C993.454 702.65 995.246 707.172 998.83 710.927C1002.41 714.852 1007.28 717.839 1013.42 719.887C1019.74 722.106 1026.82 723.215 1034.67 723.215H1080.24V759.055L968.366 759.055V726.543L988.846 723.727L986.542 724.239C981.934 721.679 977.838 718.436 974.254 714.511C970.67 710.586 967.939 705.892 966.062 700.431C964.014 695.14 962.99 689.167 962.99 682.511ZM965.294 848.139C965.294 837.728 967.342 828.256 971.438 819.723C975.705 811.36 982.19 804.704 990.894 799.755C999.598 794.806 1010.69 792.331 1024.17 792.331C1036.8 792.331 1047.73 794.891 1056.94 800.011C1066.16 805.131 1073.24 811.872 1078.19 820.235C1083.31 828.598 1085.87 837.472 1085.87 846.859C1085.87 857.952 1083.99 866.315 1080.24 871.947C1076.65 877.75 1072.64 882.528 1068.21 886.283L1063.85 884.747L1080.24 888.075V921.355L968.366 921.355L968.366 885.515H992.686L985.006 888.331C985.006 887.99 983.982 886.966 981.934 885.259C980.057 883.552 977.753 880.992 975.022 877.579C972.462 874.336 970.243 870.24 968.366 865.291C966.318 860.512 965.294 854.795 965.294 848.139ZM994.478 858.379C994.478 862.646 995.075 866.486 996.27 869.899C997.635 873.312 999.513 876.299 1001.9 878.859C1004.46 881.419 1007.62 883.638 1011.37 885.515H1038.77C1042.52 884.15 1045.68 882.102 1048.24 879.371C1050.97 876.64 1053.02 873.398 1054.38 869.643C1055.92 865.888 1056.69 861.707 1056.69 857.099C1056.69 851.979 1055.32 847.2 1052.59 842.763C1050.03 838.496 1046.45 835.083 1041.84 832.523C1037.23 829.963 1031.94 828.683 1025.97 828.683C1019.99 828.683 1014.62 830.048 1009.84 832.779C1005.06 835.51 1001.3 839.094 998.574 843.531C995.843 848.139 994.478 853.088 994.478 858.379ZM912.046 1021.26C912.046 1011.19 913.241 1002.66 915.63 995.661C918.019 988.834 920.921 983.032 924.334 978.253C927.747 973.474 930.99 969.208 934.062 965.453L958.638 986.445C955.054 990.37 951.641 994.893 948.398 1000.01C944.985 1005.3 943.278 1012.22 943.278 1020.75C943.278 1026.38 944.302 1031.59 946.35 1036.37C948.227 1041.31 951.043 1045.24 954.798 1048.14C958.553 1051.21 963.246 1052.75 968.878 1052.75H993.454L987.054 1054.03C981.251 1051.3 976.131 1046.35 971.694 1039.18C967.427 1032.01 965.294 1022.63 965.294 1011.02C965.294 1000.95 967.854 991.565 972.974 982.861C978.265 974.328 985.347 967.501 994.222 962.381C1003.27 957.261 1013.51 954.701 1024.94 954.701C1036.72 954.701 1047.13 957.432 1056.17 962.893C1065.39 968.354 1072.64 975.437 1077.93 984.141C1083.22 992.845 1085.87 1002.06 1085.87 1011.79C1085.87 1021.52 1084.42 1029.88 1081.52 1036.88C1078.79 1044.05 1075.37 1049.42 1071.28 1053.01L1067.95 1051.73L1080.24 1055.57V1088.59H968.366C957.443 1088.59 947.801 1085.52 939.438 1079.37C930.905 1073.23 924.249 1065.04 919.47 1054.8C914.521 1044.73 912.046 1033.55 912.046 1021.26ZM1025.97 990.797C1019.99 990.797 1014.62 992.162 1009.84 994.893C1005.06 997.624 1001.3 1001.29 998.574 1005.9C995.843 1010.68 994.478 1015.97 994.478 1021.77C994.478 1026.72 995.075 1031.07 996.27 1034.83C997.635 1038.75 999.513 1042.17 1001.9 1045.07C1004.46 1048.14 1007.62 1050.7 1011.37 1052.75H1038.77C1042.52 1051.21 1045.68 1048.91 1048.24 1045.84C1050.97 1042.77 1053.02 1039.18 1054.38 1035.09C1055.92 1031.16 1056.69 1026.72 1056.69 1021.77C1056.69 1015.97 1055.32 1010.68 1052.59 1005.9C1050.03 1001.29 1046.45 997.624 1041.84 994.893C1037.23 992.162 1031.94 990.797 1025.97 990.797ZM965.294 1185.57C965.294 1171.91 967.854 1160.31 972.974 1150.75C978.094 1141.36 985.177 1134.19 994.222 1129.25C1003.27 1124.3 1013.68 1121.82 1025.45 1121.82C1036.72 1121.82 1046.87 1124.72 1055.92 1130.53C1064.96 1136.33 1072.13 1144.09 1077.42 1153.82C1082.88 1163.55 1085.61 1174.39 1085.61 1186.33C1085.61 1202.38 1080.92 1215.52 1071.53 1225.76C1062.32 1236.17 1048.92 1242.91 1031.34 1245.98L1003.69 1158.94L1023.15 1151.01L1044.4 1213.98L1041.07 1206.56C1045.51 1205.19 1049.35 1202.72 1052.59 1199.13C1056 1195.72 1057.71 1190.51 1057.71 1183.52C1057.71 1178.23 1056.43 1173.53 1053.87 1169.44C1051.48 1165.51 1047.98 1162.44 1043.37 1160.22C1038.94 1158.17 1033.65 1157.15 1027.5 1157.15C1020.5 1157.15 1014.62 1158.43 1009.84 1160.99C1005.23 1163.55 1001.73 1167.05 999.342 1171.49C996.953 1175.92 995.758 1180.87 995.758 1186.33C995.758 1190.26 996.441 1194.01 997.806 1197.6C999.171 1201.35 1000.96 1205.02 1003.18 1208.61L976.558 1224.48C973.145 1218.5 970.414 1212.02 968.366 1205.02C966.318 1198.19 965.294 1191.71 965.294 1185.57Z" fill="#28A1F1"/>
</g>
<defs>
<linearGradient id="paint0_linear_3_148" x1="139.836" y1="933.632" x2="173.1" y2="966.698" gradientUnits="userSpaceOnUse">
<stop offset="0.195" stop-color="white" stop-opacity="0.25"/>
<stop offset="0.66" stop-color="white"/>
</linearGradient>
<clipPath id="clip0_3_148">
<rect width="1920" height="1080" fill="white" transform="translate(0 0.506226)"/>
</clipPath>
</defs>
</svg>
