<svg width="1920" height="1081" viewBox="0 0 1920 1081" fill="none" xmlns="http://www.w3.org/2000/svg">
<g clip-path="url(#clip0_3_168)">
<rect width="1920" height="1080" transform="translate(0 0.0124512)" fill="#28A1F1"/>
<path d="M235.783 927.807L242.663 944.767L239.975 944.223L246.215 927.807H251.719L240.967 952.447L230.215 927.807H235.783ZM269.009 933.503C268.113 933.013 267.196 932.607 266.257 932.287C265.34 931.967 264.476 931.807 263.665 931.807C262.663 931.807 261.873 932.01 261.297 932.415C260.721 932.821 260.433 933.429 260.433 934.239C260.433 934.794 260.647 935.295 261.073 935.743C261.521 936.17 262.087 936.554 262.769 936.895C263.473 937.237 264.199 937.546 264.945 937.823C265.628 938.079 266.3 938.389 266.961 938.751C267.644 939.093 268.252 939.53 268.785 940.063C269.319 940.575 269.745 941.226 270.065 942.015C270.385 942.783 270.545 943.733 270.545 944.863C270.545 946.058 270.236 947.167 269.617 948.191C268.999 949.215 268.092 950.047 266.897 950.687C265.703 951.306 264.231 951.615 262.481 951.615C261.585 951.615 260.668 951.53 259.729 951.359C258.812 951.167 257.905 950.89 257.009 950.527C256.113 950.143 255.249 949.663 254.417 949.087L256.465 945.471C257.02 945.877 257.617 946.239 258.257 946.559C258.919 946.858 259.58 947.093 260.241 947.263C260.903 947.434 261.511 947.519 262.065 947.519C262.62 947.519 263.175 947.445 263.729 947.295C264.305 947.125 264.775 946.847 265.137 946.463C265.521 946.079 265.713 945.546 265.713 944.863C265.713 944.394 265.553 943.967 265.233 943.583C264.935 943.199 264.519 942.847 263.985 942.527C263.473 942.207 262.908 941.93 262.289 941.695C261.564 941.418 260.817 941.098 260.049 940.735C259.281 940.373 258.556 939.935 257.873 939.423C257.212 938.89 256.668 938.239 256.241 937.471C255.836 936.682 255.633 935.722 255.633 934.591C255.633 933.226 255.932 932.042 256.529 931.039C257.148 930.037 258.012 929.247 259.121 928.671C260.231 928.074 261.511 927.743 262.961 927.679C264.86 927.679 266.396 927.903 267.569 928.351C268.764 928.799 269.831 929.333 270.769 929.951L269.009 933.503ZM275.729 951.359V926.847H275.761L288.849 945.407L286.865 944.959L299.921 926.847H299.985V951.359H295.345V937.311L295.633 939.711L287.665 951.039H287.601L279.409 939.711L280.209 937.503V951.359H275.729ZM306.713 927.807H311.353V946.879H322.425V951.359H306.713V927.807Z" fill="white"/>
<path fill-rule="evenodd" clip-rule="evenodd" d="M173.612 966.59L153.25 933.643H140.276V946.18L153.141 966.636L173.612 966.636V966.59Z" fill="url(#paint0_linear_3_168)" fill-opacity="0.5"/>
<path d="M160.962 933.65L140.293 946.235V921.066L160.962 933.65Z" fill="white"/>
<path d="M193.933 900.65H214.404L173.613 966.65H153.141L193.933 900.65Z" fill="white"/>
<path d="M142.083 114.719H186.243V128.159H156.003V144.191H182.211V157.631H156.003V185.375H142.083V114.719ZM197.246 150.143C197.246 145.279 198.174 140.671 200.03 136.319C201.886 131.967 204.446 128.127 207.71 124.799C211.038 121.407 214.878 118.751 219.23 116.831C223.582 114.911 228.254 113.951 233.246 113.951C238.174 113.951 242.814 114.911 247.166 116.831C251.518 118.751 255.358 121.407 258.686 124.799C262.078 128.127 264.702 131.967 266.558 136.319C268.478 140.671 269.438 145.279 269.438 150.143C269.438 155.135 268.478 159.807 266.558 164.159C264.702 168.511 262.078 172.351 258.686 175.679C255.358 178.943 251.518 181.503 247.166 183.359C242.814 185.215 238.174 186.143 233.246 186.143C228.254 186.143 223.582 185.215 219.23 183.359C214.878 181.503 211.038 178.943 207.71 175.679C204.446 172.351 201.886 168.511 200.03 164.159C198.174 159.807 197.246 155.135 197.246 150.143ZM211.646 150.143C211.646 153.279 212.19 156.223 213.278 158.975C214.43 161.663 215.998 164.063 217.982 166.175C220.03 168.223 222.366 169.823 224.99 170.975C227.678 172.127 230.59 172.703 233.726 172.703C236.734 172.703 239.518 172.127 242.078 170.975C244.702 169.823 246.974 168.223 248.894 166.175C250.814 164.063 252.318 161.663 253.406 158.975C254.494 156.223 255.038 153.279 255.038 150.143C255.038 146.943 254.462 143.967 253.31 141.215C252.222 138.463 250.686 136.063 248.702 134.015C246.782 131.903 244.51 130.271 241.886 129.119C239.262 127.967 236.414 127.391 233.342 127.391C230.27 127.391 227.422 127.967 224.798 129.119C222.174 130.271 219.87 131.903 217.886 134.015C215.902 136.063 214.366 138.463 213.278 141.215C212.19 143.967 211.646 146.943 211.646 150.143ZM348.5 188.255L294.932 139.871L299.06 142.175L299.348 185.375H285.236V111.935H285.812L338.228 160.127L335.156 158.783L334.868 114.719H348.884V188.255H348.5ZM364.2 114.719H411.816V128.159H394.632V185.375H380.712V128.159H364.2V114.719ZM137.523 259.375V222.607H137.571L157.203 250.447L154.227 249.775L173.811 222.607H173.907V259.375H166.947V238.303L167.379 241.903L155.427 258.895H155.331L143.043 241.903L144.243 238.591V259.375H137.523ZM180.015 259.375L195.951 222.655H196.335L212.271 259.375H204.207L194.031 233.551L199.071 230.095L186.879 259.375H180.015ZM190.911 246.607H201.519L203.967 252.463H188.751L190.911 246.607ZM218.381 224.047H225.341V259.375H218.381V224.047ZM267.051 260.815L240.267 236.623L242.331 237.775L242.475 259.375H235.419V222.655H235.707L261.915 246.751L260.379 246.079L260.235 224.047H267.243V260.815H267.051Z" fill="white"/>
<path d="M142.724 438.554C142.724 440.602 142.318 442.351 141.508 443.802C140.697 445.252 139.566 446.362 138.116 447.13C136.686 447.919 135.022 448.346 133.124 448.41V443.898C134.574 443.812 135.758 443.364 136.676 442.554C137.593 441.743 138.052 440.378 138.052 438.458V419.962H142.724V438.554ZM147.632 436.346C147.632 434.916 147.963 433.636 148.624 432.506C149.307 431.375 150.256 430.49 151.472 429.85C152.688 429.188 154.085 428.858 155.664 428.858C157.264 428.858 158.651 429.188 159.824 429.85C160.997 430.49 161.893 431.375 162.512 432.506C163.152 433.636 163.472 434.916 163.472 436.346C163.472 437.775 163.152 439.066 162.512 440.218C161.893 441.348 160.997 442.244 159.824 442.906C158.651 443.567 157.243 443.898 155.6 443.898C154.064 443.898 152.688 443.599 151.472 443.002C150.277 442.404 149.339 441.54 148.656 440.41C147.973 439.279 147.632 437.924 147.632 436.346ZM152.144 436.378C152.144 437.103 152.293 437.764 152.592 438.362C152.891 438.938 153.296 439.396 153.808 439.738C154.32 440.079 154.896 440.25 155.536 440.25C156.24 440.25 156.848 440.079 157.36 439.738C157.872 439.396 158.267 438.938 158.544 438.362C158.821 437.764 158.96 437.103 158.96 436.378C158.96 435.631 158.821 434.97 158.544 434.394C158.267 433.818 157.872 433.359 157.36 433.018C156.848 432.676 156.24 432.506 155.536 432.506C154.896 432.506 154.32 432.676 153.808 433.018C153.296 433.359 152.891 433.818 152.592 434.394C152.293 434.97 152.144 435.631 152.144 436.378ZM172.185 443.802C171.033 443.802 169.956 443.599 168.953 443.194C167.972 442.788 167.14 442.223 166.457 441.498L168.313 439.034C168.996 439.652 169.625 440.1 170.201 440.378C170.799 440.634 171.332 440.762 171.801 440.762C172.164 440.762 172.484 440.73 172.761 440.666C173.06 440.58 173.295 440.463 173.465 440.314C173.636 440.143 173.721 439.93 173.721 439.674C173.721 439.311 173.572 439.023 173.273 438.81C172.996 438.596 172.633 438.426 172.185 438.298C171.737 438.148 171.257 437.999 170.745 437.85C169.465 437.444 168.537 436.858 167.961 436.09C167.407 435.3 167.129 434.447 167.129 433.53C167.129 432.826 167.311 432.122 167.673 431.418C168.057 430.692 168.655 430.095 169.465 429.626C170.297 429.135 171.364 428.89 172.665 428.89C173.839 428.89 174.831 429.007 175.641 429.242C176.452 429.476 177.22 429.86 177.945 430.394L176.249 433.018C175.844 432.698 175.385 432.431 174.873 432.218C174.383 431.983 173.924 431.855 173.497 431.834C173.113 431.812 172.783 431.855 172.505 431.962C172.249 432.068 172.047 432.207 171.897 432.378C171.748 432.548 171.673 432.73 171.673 432.922C171.652 433.327 171.801 433.647 172.121 433.882C172.463 434.116 172.889 434.298 173.401 434.426C173.913 434.554 174.415 434.703 174.905 434.874C175.588 435.087 176.175 435.375 176.665 435.738C177.156 436.1 177.529 436.538 177.785 437.05C178.063 437.54 178.201 438.138 178.201 438.842C178.201 439.695 177.977 440.506 177.529 441.274C177.103 442.02 176.441 442.628 175.545 443.098C174.671 443.567 173.551 443.802 172.185 443.802ZM189.474 443.898C187.767 443.898 186.317 443.578 185.122 442.938C183.949 442.298 183.053 441.412 182.434 440.282C181.815 439.151 181.506 437.85 181.506 436.378C181.506 434.97 181.869 433.7 182.594 432.57C183.319 431.439 184.29 430.543 185.506 429.882C186.722 429.199 188.077 428.858 189.57 428.858C191.575 428.858 193.218 429.444 194.498 430.618C195.799 431.77 196.642 433.444 197.026 435.642L186.146 439.098L185.154 436.666L193.026 434.01L192.098 434.426C191.927 433.871 191.618 433.391 191.17 432.986C190.743 432.559 190.093 432.346 189.218 432.346C188.557 432.346 187.97 432.506 187.458 432.826C186.967 433.124 186.583 433.562 186.306 434.138C186.05 434.692 185.922 435.354 185.922 436.122C185.922 436.996 186.082 437.732 186.402 438.33C186.722 438.906 187.159 439.343 187.714 439.642C188.269 439.94 188.887 440.09 189.57 440.09C190.061 440.09 190.53 440.004 190.978 439.834C191.447 439.663 191.906 439.439 192.354 439.162L194.338 442.49C193.591 442.916 192.781 443.258 191.906 443.514C191.053 443.77 190.242 443.898 189.474 443.898ZM202.265 443.514V433.434H199.897V429.466H202.265V424.602C202.265 422.767 202.788 421.274 203.833 420.122C204.9 418.948 206.436 418.362 208.441 418.362C209.039 418.362 209.7 418.458 210.425 418.65C211.172 418.82 211.823 419.108 212.377 419.514L210.489 422.746C210.276 422.468 210.02 422.287 209.721 422.202C209.444 422.095 209.177 422.042 208.921 422.042C208.281 422.042 207.759 422.255 207.353 422.682C206.948 423.108 206.745 423.791 206.745 424.73V429.466H210.329V433.434H206.745V443.514H202.265ZM212.121 429.53H216.601V443.514H212.121V429.53ZM212.025 424.57C212.025 423.908 212.281 423.364 212.793 422.938C213.327 422.511 213.892 422.298 214.489 422.298C215.087 422.298 215.631 422.511 216.121 422.938C216.633 423.364 216.889 423.908 216.889 424.57C216.889 425.231 216.633 425.775 216.121 426.202C215.631 426.607 215.087 426.81 214.489 426.81C213.892 426.81 213.327 426.607 212.793 426.202C212.281 425.775 212.025 425.231 212.025 424.57ZM225.907 429.53L226.259 432.026L226.195 431.802C226.685 430.927 227.379 430.223 228.275 429.69C229.171 429.135 230.269 428.858 231.571 428.858C232.893 428.858 233.992 429.252 234.867 430.042C235.763 430.81 236.221 431.812 236.243 433.05V443.514H231.763V434.714C231.741 434.095 231.571 433.604 231.251 433.242C230.952 432.858 230.44 432.666 229.715 432.666C229.032 432.666 228.435 432.89 227.923 433.338C227.411 433.786 227.016 434.394 226.739 435.162C226.461 435.93 226.323 436.815 226.323 437.818V443.514H221.843V429.53H225.907ZM265.841 425.658C264.945 425.167 264.028 424.762 263.089 424.442C262.172 424.122 261.308 423.962 260.497 423.962C259.494 423.962 258.705 424.164 258.129 424.57C257.553 424.975 257.265 425.583 257.265 426.394C257.265 426.948 257.478 427.45 257.905 427.898C258.353 428.324 258.918 428.708 259.601 429.05C260.305 429.391 261.03 429.7 261.777 429.978C262.46 430.234 263.132 430.543 263.793 430.906C264.476 431.247 265.084 431.684 265.617 432.218C266.15 432.73 266.577 433.38 266.897 434.17C267.217 434.938 267.377 435.887 267.377 437.018C267.377 438.212 267.068 439.322 266.449 440.346C265.83 441.37 264.924 442.202 263.729 442.842C262.534 443.46 261.062 443.77 259.313 443.77C258.417 443.77 257.5 443.684 256.561 443.514C255.644 443.322 254.737 443.044 253.841 442.682C252.945 442.298 252.081 441.818 251.249 441.242L253.297 437.626C253.852 438.031 254.449 438.394 255.089 438.714C255.75 439.012 256.412 439.247 257.073 439.418C257.734 439.588 258.342 439.674 258.897 439.674C259.452 439.674 260.006 439.599 260.561 439.45C261.137 439.279 261.606 439.002 261.969 438.618C262.353 438.234 262.545 437.7 262.545 437.018C262.545 436.548 262.385 436.122 262.065 435.738C261.766 435.354 261.35 435.002 260.817 434.682C260.305 434.362 259.74 434.084 259.121 433.85C258.396 433.572 257.649 433.252 256.881 432.89C256.113 432.527 255.388 432.09 254.705 431.578C254.044 431.044 253.5 430.394 253.073 429.626C252.668 428.836 252.465 427.876 252.465 426.746C252.465 425.38 252.764 424.196 253.361 423.194C253.98 422.191 254.844 421.402 255.953 420.826C257.062 420.228 258.342 419.898 259.793 419.834C261.692 419.834 263.228 420.058 264.401 420.506C265.596 420.954 266.662 421.487 267.601 422.106L265.841 425.658ZM277.713 443.898C276.412 443.898 275.228 443.642 274.161 443.13C273.116 442.596 272.284 441.786 271.665 440.698C271.046 439.61 270.737 438.223 270.737 436.538C270.737 434.959 271.057 433.594 271.697 432.442C272.337 431.29 273.18 430.404 274.225 429.786C275.27 429.146 276.38 428.826 277.553 428.826C278.94 428.826 279.985 429.06 280.689 429.53C281.414 429.978 282.012 430.479 282.481 431.034L282.289 431.578L282.705 429.53H286.865V443.514H282.385V440.474L282.737 441.434C282.694 441.434 282.566 441.562 282.353 441.818C282.14 442.052 281.82 442.34 281.393 442.682C280.988 443.002 280.476 443.279 279.857 443.514C279.26 443.77 278.545 443.898 277.713 443.898ZM278.993 440.25C279.526 440.25 280.006 440.175 280.433 440.026C280.86 439.855 281.233 439.62 281.553 439.322C281.873 439.002 282.15 438.607 282.385 438.138V434.714C282.214 434.244 281.958 433.85 281.617 433.53C281.276 433.188 280.87 432.932 280.401 432.762C279.932 432.57 279.409 432.474 278.833 432.474C278.193 432.474 277.596 432.644 277.041 432.986C276.508 433.306 276.081 433.754 275.761 434.33C275.441 434.906 275.281 435.567 275.281 436.314C275.281 437.06 275.452 437.732 275.793 438.33C276.134 438.927 276.582 439.396 277.137 439.738C277.713 440.079 278.332 440.25 278.993 440.25ZM296.185 429.53L296.537 432.026L296.473 431.802C296.964 430.927 297.657 430.223 298.553 429.69C299.449 429.135 300.548 428.858 301.849 428.858C303.172 428.858 304.271 429.252 305.145 430.042C306.041 430.81 306.5 431.812 306.521 433.05V443.514H302.041V434.714C302.02 434.095 301.849 433.604 301.529 433.242C301.231 432.858 300.719 432.666 299.993 432.666C299.311 432.666 298.713 432.89 298.201 433.338C297.689 433.786 297.295 434.394 297.017 435.162C296.74 435.93 296.601 436.815 296.601 437.818V443.514H292.121V429.53H296.185ZM316.305 443.802C315.153 443.802 314.076 443.599 313.073 443.194C312.092 442.788 311.26 442.223 310.577 441.498L312.433 439.034C313.116 439.652 313.745 440.1 314.321 440.378C314.919 440.634 315.452 440.762 315.921 440.762C316.284 440.762 316.604 440.73 316.881 440.666C317.18 440.58 317.415 440.463 317.585 440.314C317.756 440.143 317.841 439.93 317.841 439.674C317.841 439.311 317.692 439.023 317.393 438.81C317.116 438.596 316.753 438.426 316.305 438.298C315.857 438.148 315.377 437.999 314.865 437.85C313.585 437.444 312.657 436.858 312.081 436.09C311.527 435.3 311.249 434.447 311.249 433.53C311.249 432.826 311.431 432.122 311.793 431.418C312.177 430.692 312.775 430.095 313.585 429.626C314.417 429.135 315.484 428.89 316.785 428.89C317.959 428.89 318.951 429.007 319.761 429.242C320.572 429.476 321.34 429.86 322.065 430.394L320.369 433.018C319.964 432.698 319.505 432.431 318.993 432.218C318.503 431.983 318.044 431.855 317.617 431.834C317.233 431.812 316.903 431.855 316.625 431.962C316.369 432.068 316.167 432.207 316.017 432.378C315.868 432.548 315.793 432.73 315.793 432.922C315.772 433.327 315.921 433.647 316.241 433.882C316.583 434.116 317.009 434.298 317.521 434.426C318.033 434.554 318.535 434.703 319.025 434.874C319.708 435.087 320.295 435.375 320.785 435.738C321.276 436.1 321.649 436.538 321.905 437.05C322.183 437.54 322.321 438.138 322.321 438.842C322.321 439.695 322.097 440.506 321.649 441.274C321.223 442.02 320.561 442.628 319.665 443.098C318.791 443.567 317.671 443.802 316.305 443.802Z" fill="white"/>
<path d="M133.54 591.218L149.476 554.498H149.86L165.796 591.218H157.732L147.556 565.394L152.596 561.938L140.404 591.218H133.54ZM144.436 578.45H155.044L157.492 584.306H142.276L144.436 578.45ZM182.274 555.89C185.954 555.89 188.882 556.642 191.058 558.146C193.234 559.618 194.322 561.826 194.322 564.77C194.322 566.946 193.778 568.77 192.69 570.242C191.634 571.682 190.178 572.77 188.322 573.506C186.498 574.21 184.402 574.562 182.034 574.562L180.93 570.818C183.842 570.818 186.418 571.218 188.658 572.018C190.93 572.818 192.722 573.97 194.034 575.474C195.346 576.946 196.002 578.722 196.002 580.802C196.002 582.722 195.65 584.354 194.946 585.698C194.274 587.01 193.346 588.082 192.162 588.914C191.01 589.714 189.698 590.306 188.226 590.69C186.754 591.042 185.234 591.218 183.666 591.218H171.906V555.89H182.274ZM183.09 570.338C184.466 570.338 185.474 569.922 186.114 569.09C186.786 568.258 187.122 567.314 187.122 566.258C187.122 565.042 186.706 564.13 185.874 563.522C185.074 562.914 183.986 562.61 182.61 562.61H178.866V570.338H183.09ZM183.33 584.738C184.354 584.738 185.282 584.61 186.114 584.354C186.946 584.066 187.602 583.634 188.082 583.058C188.562 582.45 188.802 581.698 188.802 580.802C188.802 579.778 188.514 579.01 187.938 578.498C187.362 577.954 186.61 577.586 185.682 577.394C184.786 577.17 183.842 577.058 182.85 577.058H178.866V584.738H183.33ZM230.44 588.29C230.056 588.61 229.336 589.042 228.28 589.586C227.256 590.13 225.992 590.61 224.488 591.026C222.984 591.442 221.32 591.634 219.496 591.602C216.712 591.538 214.216 591.042 212.008 590.114C209.832 589.154 207.976 587.858 206.44 586.226C204.936 584.594 203.784 582.722 202.984 580.61C202.184 578.498 201.784 576.242 201.784 573.842C201.784 571.154 202.184 568.69 202.984 566.45C203.816 564.21 204.984 562.274 206.488 560.642C208.024 559.01 209.848 557.746 211.96 556.85C214.072 555.954 216.408 555.506 218.968 555.506C221.336 555.506 223.432 555.826 225.256 556.466C227.08 557.106 228.568 557.794 229.72 558.53L226.984 565.106C226.184 564.498 225.112 563.874 223.768 563.234C222.456 562.562 220.936 562.226 219.208 562.226C217.864 562.226 216.568 562.514 215.32 563.09C214.104 563.634 213.016 564.418 212.056 565.442C211.128 566.466 210.392 567.666 209.848 569.042C209.304 570.386 209.032 571.858 209.032 573.458C209.032 575.154 209.272 576.706 209.752 578.114C210.264 579.522 210.984 580.738 211.912 581.762C212.84 582.754 213.944 583.522 215.224 584.066C216.536 584.61 218.008 584.882 219.64 584.882C221.528 584.882 223.144 584.578 224.488 583.97C225.832 583.362 226.856 582.722 227.56 582.05L230.44 588.29ZM238.373 591.218V555.89H248.933C252.485 555.89 255.509 556.418 258.005 557.474C260.501 558.53 262.501 559.938 264.005 561.698C265.541 563.458 266.661 565.426 267.365 567.602C268.069 569.778 268.421 571.97 268.421 574.178C268.421 576.802 267.941 579.17 266.981 581.282C266.053 583.362 264.773 585.154 263.141 586.658C261.509 588.13 259.621 589.266 257.477 590.066C255.333 590.834 253.061 591.218 250.661 591.218H238.373ZM245.333 584.498H249.461C251.221 584.498 252.821 584.274 254.261 583.826C255.701 583.346 256.933 582.658 257.957 581.762C259.013 580.866 259.813 579.746 260.357 578.402C260.933 577.026 261.221 575.458 261.221 573.698C261.221 571.394 260.837 569.522 260.069 568.082C259.333 566.61 258.405 565.474 257.285 564.674C256.197 563.874 255.077 563.33 253.925 563.042C252.773 562.722 251.797 562.562 250.997 562.562H245.333V584.498ZM276.364 555.89H300.46V562.61H283.324V570.146H298.492V576.866H283.324V584.498H301.132V591.218H276.364V555.89ZM309.293 555.89H331.373V562.61H316.253V570.626H329.357V577.346H316.253V591.218H309.293V555.89ZM367.69 587.666C367.274 588.114 366.618 588.578 365.722 589.058C364.826 589.506 363.786 589.922 362.602 590.306C361.45 590.69 360.266 590.994 359.05 591.218C357.834 591.474 356.682 591.602 355.594 591.602C352.714 591.602 350.122 591.186 347.818 590.354C345.514 589.49 343.546 588.306 341.914 586.802C340.282 585.266 339.034 583.458 338.17 581.378C337.306 579.298 336.874 577.026 336.874 574.562C336.874 571.33 337.354 568.53 338.314 566.162C339.306 563.762 340.634 561.778 342.298 560.21C343.994 558.61 345.93 557.426 348.106 556.658C350.314 555.89 352.618 555.506 355.018 555.506C357.29 555.506 359.37 555.762 361.258 556.274C363.146 556.754 364.746 557.362 366.058 558.098L363.802 564.578C363.226 564.258 362.458 563.938 361.498 563.618C360.538 563.298 359.562 563.042 358.57 562.85C357.578 562.626 356.698 562.514 355.93 562.514C354.01 562.514 352.314 562.754 350.842 563.234C349.37 563.714 348.122 564.434 347.098 565.394C346.106 566.354 345.354 567.554 344.842 568.994C344.33 570.402 344.074 572.05 344.074 573.938C344.074 575.602 344.362 577.106 344.938 578.45C345.514 579.762 346.314 580.882 347.338 581.81C348.394 582.738 349.626 583.442 351.034 583.922C352.474 584.402 354.058 584.642 355.786 584.642C356.778 584.642 357.69 584.578 358.522 584.45C359.354 584.29 360.058 584.05 360.634 583.73V579.458H354.538V572.738H367.69V587.666ZM406.268 555.89V591.218H399.308V576.866H383.516V591.218H376.556V555.89H383.516V570.146H399.308V555.89H406.268ZM416.329 555.89H423.289V591.218H416.329V555.89ZM443.447 583.778C443.447 586.85 442.839 589.474 441.623 591.65C440.407 593.826 438.711 595.49 436.535 596.642C434.391 597.826 431.895 598.466 429.047 598.562V591.794C431.223 591.666 432.999 590.994 434.375 589.778C435.751 588.562 436.439 586.514 436.439 583.634V555.89H443.447V583.778ZM460.602 568.466L460.41 570.242L461.466 568.898L472.986 555.89H482.01L467.418 571.73L482.058 591.218H473.226L462.33 576.146L460.602 577.874V591.218H453.546V555.89H460.602V568.466ZM488.303 555.89H495.263V584.498H511.871V591.218H488.303V555.89ZM520.013 591.218V554.45H520.061L539.693 582.29L536.717 581.618L556.301 554.45H556.397V591.218H549.437V570.146L549.869 573.746L537.917 590.738H537.821L525.533 573.746L526.733 570.434V591.218H520.013ZM598.12 592.658L571.336 568.466L573.4 569.618L573.544 591.218H566.488V554.498H566.776L592.984 578.594L591.448 577.922L591.304 555.89H598.312V592.658H598.12ZM606.21 573.602C606.21 571.17 606.674 568.866 607.602 566.69C608.53 564.514 609.81 562.594 611.442 560.93C613.106 559.234 615.026 557.906 617.202 556.946C619.378 555.986 621.714 555.506 624.21 555.506C626.674 555.506 628.994 555.986 631.17 556.946C633.346 557.906 635.266 559.234 636.93 560.93C638.626 562.594 639.938 564.514 640.866 566.69C641.826 568.866 642.306 571.17 642.306 573.602C642.306 576.098 641.826 578.434 640.866 580.61C639.938 582.786 638.626 584.706 636.93 586.37C635.266 588.002 633.346 589.282 631.17 590.21C628.994 591.138 626.674 591.602 624.21 591.602C621.714 591.602 619.378 591.138 617.202 590.21C615.026 589.282 613.106 588.002 611.442 586.37C609.81 584.706 608.53 582.786 607.602 580.61C606.674 578.434 606.21 576.098 606.21 573.602ZM613.41 573.602C613.41 575.17 613.682 576.642 614.226 578.018C614.802 579.362 615.586 580.562 616.578 581.618C617.602 582.642 618.77 583.442 620.082 584.018C621.426 584.594 622.882 584.882 624.45 584.882C625.954 584.882 627.346 584.594 628.626 584.018C629.938 583.442 631.074 582.642 632.034 581.618C632.994 580.562 633.746 579.362 634.29 578.018C634.834 576.642 635.106 575.17 635.106 573.602C635.106 572.002 634.818 570.514 634.242 569.138C633.698 567.762 632.93 566.562 631.938 565.538C630.978 564.482 629.842 563.666 628.53 563.09C627.218 562.514 625.794 562.226 624.258 562.226C622.722 562.226 621.298 562.514 619.986 563.09C618.674 563.666 617.522 564.482 616.53 565.538C615.538 566.562 614.77 567.762 614.226 569.138C613.682 570.514 613.41 572.002 613.41 573.602ZM660.909 555.89C663.821 555.89 666.285 556.386 668.301 557.378C670.317 558.338 671.853 559.714 672.909 561.506C673.965 563.266 674.493 565.362 674.493 567.794C674.493 569.234 674.269 570.69 673.821 572.162C673.405 573.602 672.717 574.914 671.757 576.098C670.829 577.282 669.565 578.242 667.965 578.978C666.397 579.682 664.461 580.034 662.157 580.034H657.165V591.218H650.205V555.89H660.909ZM662.109 573.266C663.165 573.266 664.045 573.09 664.749 572.738C665.453 572.354 665.997 571.89 666.381 571.346C666.797 570.77 667.085 570.178 667.245 569.57C667.437 568.962 667.533 568.434 667.533 567.986C667.533 567.634 667.469 567.17 667.341 566.594C667.245 565.986 667.021 565.378 666.669 564.77C666.317 564.162 665.773 563.65 665.037 563.234C664.333 562.818 663.373 562.61 662.157 562.61H657.165V573.266H662.109ZM706.641 584.402H717.585V591.218H697.521L706.641 584.402ZM679.521 573.602C679.521 571.17 679.985 568.866 680.913 566.69C681.841 564.514 683.121 562.594 684.753 560.93C686.417 559.234 688.337 557.906 690.513 556.946C692.689 555.986 695.025 555.506 697.521 555.506C699.985 555.506 702.305 555.986 704.481 556.946C706.657 557.906 708.577 559.234 710.241 560.93C711.937 562.594 713.249 564.514 714.177 566.69C715.137 568.866 715.617 571.17 715.617 573.602C715.617 576.098 715.137 578.434 714.177 580.61C713.249 582.786 711.937 584.706 710.241 586.37C708.577 588.002 706.657 589.282 704.481 590.21C702.305 591.138 699.985 591.602 697.521 591.602C695.025 591.602 692.689 591.138 690.513 590.21C688.337 589.282 686.417 588.002 684.753 586.37C683.121 584.706 681.841 582.786 680.913 580.61C679.985 578.434 679.521 576.098 679.521 573.602ZM686.721 573.602C686.721 575.138 686.993 576.594 687.537 577.97C688.113 579.314 688.897 580.514 689.889 581.57C690.913 582.594 692.081 583.394 693.393 583.97C694.737 584.546 696.193 584.834 697.761 584.834C699.265 584.834 700.657 584.546 701.937 583.97C703.249 583.394 704.385 582.594 705.345 581.57C706.305 580.546 707.057 579.362 707.601 578.018C708.145 576.642 708.417 575.17 708.417 573.602C708.417 572.066 708.129 570.626 707.553 569.282C707.009 567.906 706.241 566.706 705.249 565.682C704.289 564.658 703.153 563.858 701.841 563.282C700.529 562.706 699.105 562.418 697.569 562.418C696.033 562.418 694.609 562.706 693.297 563.282C691.985 563.858 690.833 564.658 689.841 565.682C688.849 566.706 688.081 567.906 687.537 569.282C686.993 570.626 686.721 572.066 686.721 573.602ZM736.189 555.89C738.397 555.89 740.365 556.178 742.093 556.754C743.821 557.298 745.261 558.098 746.413 559.154C747.597 560.178 748.493 561.426 749.101 562.898C749.708 564.338 750.012 565.97 750.012 567.794C750.012 569.234 749.788 570.674 749.34 572.114C748.925 573.554 748.221 574.866 747.229 576.05C746.269 577.234 744.989 578.194 743.389 578.93C741.789 579.634 739.805 579.986 737.437 579.986H732.444V591.218H725.484V555.89H736.189ZM737.389 573.266C738.445 573.266 739.325 573.09 740.029 572.738C740.733 572.386 741.277 571.938 741.661 571.394C742.077 570.85 742.365 570.29 742.525 569.714C742.717 569.106 742.813 568.546 742.813 568.034C742.813 567.65 742.749 567.17 742.621 566.594C742.525 565.986 742.301 565.378 741.949 564.77C741.597 564.162 741.053 563.65 740.317 563.234C739.613 562.818 738.653 562.61 737.437 562.61H732.444V573.266H737.389ZM743.917 577.586L752.653 591.218H744.541L735.613 577.778L743.917 577.586ZM778.215 564.434C776.871 563.698 775.495 563.09 774.087 562.61C772.711 562.13 771.415 561.89 770.199 561.89C768.695 561.89 767.511 562.194 766.647 562.802C765.783 563.41 765.351 564.322 765.351 565.538C765.351 566.37 765.671 567.122 766.311 567.794C766.983 568.434 767.831 569.01 768.855 569.522C769.911 570.034 770.999 570.498 772.119 570.914C773.143 571.298 774.151 571.762 775.143 572.306C776.167 572.818 777.079 573.474 777.879 574.274C778.679 575.042 779.319 576.018 779.799 577.202C780.279 578.354 780.519 579.778 780.519 581.474C780.519 583.266 780.055 584.93 779.127 586.466C778.199 588.002 776.839 589.25 775.047 590.21C773.255 591.138 771.047 591.602 768.423 591.602C767.079 591.602 765.703 591.474 764.295 591.218C762.919 590.93 761.559 590.514 760.215 589.97C758.871 589.394 757.575 588.674 756.327 587.81L759.399 582.386C760.231 582.994 761.127 583.538 762.087 584.018C763.079 584.466 764.071 584.818 765.063 585.074C766.055 585.33 766.967 585.458 767.799 585.458C768.631 585.458 769.463 585.346 770.295 585.122C771.159 584.866 771.863 584.45 772.407 583.874C772.983 583.298 773.271 582.498 773.271 581.474C773.271 580.77 773.031 580.13 772.551 579.554C772.103 578.978 771.479 578.45 770.679 577.97C769.911 577.49 769.063 577.074 768.135 576.722C767.047 576.306 765.927 575.826 764.775 575.282C763.623 574.738 762.535 574.082 761.511 573.314C760.519 572.514 759.703 571.538 759.063 570.386C758.455 569.202 758.151 567.762 758.151 566.066C758.151 564.018 758.599 562.242 759.495 560.738C760.423 559.234 761.719 558.05 763.383 557.186C765.047 556.29 766.967 555.794 769.143 555.698C771.991 555.698 774.295 556.034 776.055 556.706C777.847 557.378 779.447 558.178 780.855 559.106L778.215 564.434ZM785.895 555.89H809.703V562.61H801.111V591.218H794.151V562.61H785.895V555.89ZM823.62 578.162C823.62 579.282 823.956 580.354 824.628 581.378C825.3 582.402 826.18 583.234 827.268 583.874C828.388 584.514 829.604 584.834 830.916 584.834C832.356 584.834 833.636 584.514 834.756 583.874C835.876 583.234 836.756 582.402 837.396 581.378C838.068 580.354 838.404 579.282 838.404 578.162V555.89H845.268V578.306C845.268 580.898 844.628 583.202 843.348 585.218C842.068 587.202 840.34 588.77 838.164 589.922C835.988 591.042 833.572 591.602 830.916 591.602C828.292 591.602 825.892 591.042 823.716 589.922C821.572 588.77 819.86 587.202 818.58 585.218C817.3 583.202 816.66 580.898 816.66 578.306V555.89H823.62V578.162ZM859.949 555.89L870.269 581.33L866.237 580.514L875.597 555.89H883.853L867.725 592.85L851.597 555.89H859.949ZM887.901 556.13H896.061L903.597 578.306L902.493 577.826L909.069 561.458L912.285 571.01L902.109 592.85L887.901 556.13ZM905.613 556.13H912.525L921.213 577.586L919.965 577.394L926.445 556.13H933.933L920.301 592.754L905.613 556.13ZM959.874 564.434C958.53 563.698 957.154 563.09 955.746 562.61C954.37 562.13 953.074 561.89 951.858 561.89C950.354 561.89 949.17 562.194 948.306 562.802C947.442 563.41 947.01 564.322 947.01 565.538C947.01 566.37 947.33 567.122 947.97 567.794C948.642 568.434 949.49 569.01 950.514 569.522C951.57 570.034 952.658 570.498 953.778 570.914C954.802 571.298 955.81 571.762 956.802 572.306C957.826 572.818 958.738 573.474 959.538 574.274C960.338 575.042 960.978 576.018 961.458 577.202C961.938 578.354 962.178 579.778 962.178 581.474C962.178 583.266 961.714 584.93 960.786 586.466C959.858 588.002 958.498 589.25 956.706 590.21C954.914 591.138 952.706 591.602 950.082 591.602C948.738 591.602 947.362 591.474 945.954 591.218C944.578 590.93 943.218 590.514 941.874 589.97C940.53 589.394 939.234 588.674 937.986 587.81L941.058 582.386C941.89 582.994 942.786 583.538 943.746 584.018C944.738 584.466 945.73 584.818 946.722 585.074C947.714 585.33 948.626 585.458 949.458 585.458C950.29 585.458 951.122 585.346 951.954 585.122C952.818 584.866 953.522 584.45 954.066 583.874C954.642 583.298 954.93 582.498 954.93 581.474C954.93 580.77 954.69 580.13 954.21 579.554C953.762 578.978 953.138 578.45 952.338 577.97C951.57 577.49 950.722 577.074 949.794 576.722C948.706 576.306 947.586 575.826 946.434 575.282C945.282 574.738 944.194 574.082 943.17 573.314C942.178 572.514 941.362 571.538 940.722 570.386C940.114 569.202 939.81 567.762 939.81 566.066C939.81 564.018 940.258 562.242 941.154 560.738C942.082 559.234 943.378 558.05 945.042 557.186C946.706 556.29 948.626 555.794 950.802 555.698C953.65 555.698 955.954 556.034 957.714 556.706C959.506 557.378 961.106 558.178 962.514 559.106L959.874 564.434ZM979.122 580.226L966.114 555.89H974.706L983.826 574.226L981.762 574.37L990.738 555.89H999.33L986.082 580.226V591.218H979.122V580.226ZM1003.16 591.218C1003.16 591.218 1003.43 590.786 1003.97 589.922C1004.52 589.058 1005.24 587.906 1006.13 586.466C1007.06 585.026 1008.08 583.394 1009.2 581.57C1010.36 579.746 1011.52 577.874 1012.71 575.954C1013.92 574.034 1015.09 572.162 1016.21 570.338C1017.36 568.514 1018.39 566.882 1019.28 565.442C1020.21 564.002 1020.95 562.85 1021.49 561.986C1022.04 561.122 1022.31 560.69 1022.31 560.69L1023.08 562.61H1010.36C1009.68 562.61 1008.98 562.466 1008.24 562.178C1007.54 561.858 1006.93 561.442 1006.42 560.93C1005.94 560.386 1005.7 559.794 1005.7 559.154V554.114H1012.08V554.786C1012.08 555.49 1012.2 555.858 1012.42 555.89C1012.64 555.89 1013.04 555.89 1013.62 555.89H1033.25L1014.63 585.266L1014.24 584.498H1033.2V591.218H1003.16Z" fill="white"/>
<path d="M148.036 648.559C146.212 648.559 144.484 648.239 142.852 647.599C141.252 646.959 139.828 645.983 138.58 644.671C137.364 643.327 136.404 641.647 135.7 639.631C134.996 637.583 134.644 635.183 134.644 632.431C134.644 629.359 134.98 626.799 135.652 624.751C136.324 622.671 137.252 621.007 138.436 619.759C139.652 618.511 141.076 617.631 142.708 617.119C144.34 616.575 146.116 616.303 148.036 616.303C149.86 616.303 151.572 616.623 153.172 617.263C154.804 617.903 156.228 618.895 157.444 620.239C158.692 621.551 159.668 623.231 160.372 625.279C161.076 627.295 161.428 629.679 161.428 632.431C161.428 635.279 161.076 637.727 160.372 639.775C159.668 641.823 158.692 643.503 157.444 644.815C156.196 646.095 154.772 647.039 153.172 647.647C151.572 648.255 149.86 648.559 148.036 648.559ZM147.988 641.887C149.588 641.887 150.836 641.471 151.732 640.639C152.628 639.775 153.252 638.607 153.604 637.135C153.988 635.663 154.18 634.031 154.18 632.239C154.18 630.479 153.988 628.911 153.604 627.535C153.252 626.159 152.628 625.071 151.732 624.271C150.836 623.439 149.588 623.023 147.988 623.023C146.42 623.023 145.188 623.439 144.292 624.271C143.396 625.103 142.772 626.223 142.42 627.631C142.068 629.039 141.892 630.623 141.892 632.383C141.892 634.143 142.068 635.743 142.42 637.183C142.772 638.623 143.396 639.775 144.292 640.639C145.188 641.471 146.42 641.887 147.988 641.887ZM166.464 616.687H176.016V648.511H169.008V623.407H166.464V616.687ZM184.116 648.511C186.1 646.495 188.004 644.559 189.828 642.703C191.652 640.815 193.284 639.007 194.724 637.279C196.196 635.519 197.348 633.823 198.18 632.191C199.044 630.559 199.476 628.975 199.476 627.439C199.476 626.767 199.348 626.159 199.092 625.615C198.868 625.071 198.532 624.607 198.084 624.223C197.668 623.839 197.156 623.551 196.548 623.359C195.972 623.135 195.316 623.023 194.58 623.023C193.844 623.023 193.188 623.135 192.612 623.359C192.036 623.551 191.556 623.823 191.172 624.175C190.788 624.527 190.484 624.911 190.26 625.327C190.068 625.743 189.972 626.175 189.972 626.623C189.972 627.647 190.132 628.559 190.452 629.359C190.804 630.127 191.268 630.815 191.844 631.423L187.572 635.311C186.644 634.863 185.844 634.111 185.172 633.055C184.532 631.999 184.036 630.895 183.684 629.743C183.364 628.559 183.204 627.583 183.204 626.815C183.204 625.055 183.684 623.375 184.644 621.775C185.636 620.175 187.06 618.863 188.916 617.839C190.804 616.815 193.092 616.303 195.78 616.303C197.988 616.303 199.908 616.799 201.54 617.791C203.172 618.783 204.436 620.095 205.332 621.727C206.26 623.327 206.724 625.039 206.724 626.863C206.724 628.303 206.5 629.695 206.052 631.039C205.604 632.383 204.98 633.711 204.18 635.023C203.412 636.303 202.532 637.583 201.54 638.863C200.548 640.111 199.524 641.391 198.468 642.703L195.3 641.791H207.108V648.511H184.116ZM232.357 616.687L225.157 630.511L221.365 628.447C221.685 628.319 222.021 628.223 222.373 628.159C222.757 628.095 223.109 628.063 223.429 628.063C224.549 628.031 225.669 628.159 226.789 628.447C227.909 628.735 228.917 629.247 229.813 629.983C230.741 630.719 231.477 631.727 232.021 633.007C232.597 634.287 232.885 635.919 232.885 637.903C232.885 640.207 232.341 642.191 231.253 643.855C230.197 645.487 228.805 646.735 227.077 647.599C225.349 648.463 223.477 648.895 221.461 648.895C219.893 648.895 218.245 648.575 216.517 647.935C214.789 647.263 213.413 646.383 212.389 645.295L215.941 639.535C216.421 640.143 217.157 640.735 218.149 641.311C219.141 641.887 220.181 642.175 221.269 642.175C221.973 642.175 222.661 641.999 223.333 641.647C224.005 641.295 224.565 640.767 225.013 640.063C225.461 639.359 225.685 638.495 225.685 637.471C225.685 636.063 225.285 634.943 224.485 634.111C223.717 633.279 222.629 632.863 221.221 632.863C220.261 632.863 219.525 632.911 219.013 633.007C218.533 633.071 218.053 633.167 217.573 633.295L217.429 633.103L223.045 622.591L225.061 623.407H215.029V616.687H232.357ZM237.221 641.551V641.503L257.525 616.303H257.573V636.271H261.365V641.551H257.573V648.511H250.565V641.551H237.221ZM250.901 631.615L247.205 636.559L246.533 636.271H250.565V631.279L250.901 631.615ZM275.849 648.895C273.961 648.895 272.121 648.543 270.329 647.839C268.537 647.135 267.145 646.287 266.153 645.295L269.753 639.727C270.329 640.431 271.145 641.023 272.201 641.503C273.289 641.951 274.329 642.175 275.321 642.175C276.057 642.175 276.745 642.015 277.385 641.695C278.025 641.375 278.537 640.895 278.921 640.255C279.305 639.615 279.497 638.831 279.497 637.903C279.497 636.879 279.289 635.983 278.873 635.215C278.489 634.447 277.913 633.855 277.145 633.439C276.409 632.991 275.529 632.767 274.505 632.767C273.513 632.767 272.569 632.911 271.673 633.199C270.777 633.455 269.721 633.903 268.505 634.543H268.457V616.687H284.345V623.407H274.457V628.543L273.641 627.103C274.089 627.039 274.521 626.991 274.937 626.959C275.353 626.927 275.769 626.911 276.185 626.911C278.425 626.911 280.313 627.407 281.849 628.399C283.417 629.391 284.617 630.703 285.449 632.335C286.281 633.967 286.697 635.743 286.697 637.663C286.697 639.775 286.217 641.679 285.257 643.375C284.297 645.071 282.985 646.415 281.321 647.407C279.689 648.399 277.865 648.895 275.849 648.895ZM303.764 648.895C301.46 648.895 299.38 648.351 297.524 647.263C295.668 646.175 294.196 644.575 293.108 642.463C292.02 640.351 291.476 637.775 291.476 634.735C291.476 632.847 291.828 631.023 292.532 629.263C293.268 627.471 294.26 625.775 295.508 624.175C296.788 622.543 298.26 621.023 299.924 619.615C301.588 618.207 303.364 616.943 305.252 615.823L309.908 620.863C307.348 621.855 305.252 623.135 303.62 624.703C301.988 626.239 300.788 627.839 300.02 629.503C299.252 631.167 298.868 632.703 298.868 634.111L297.14 633.919C298.004 631.903 299.108 630.335 300.452 629.215C301.828 628.095 303.732 627.535 306.164 627.535C307.7 627.535 309.188 627.967 310.628 628.831C312.068 629.695 313.236 630.895 314.132 632.431C315.06 633.967 315.524 635.759 315.524 637.807C315.524 640.175 314.948 642.191 313.796 643.855C312.676 645.487 311.22 646.735 309.428 647.599C307.636 648.463 305.748 648.895 303.764 648.895ZM303.476 642.655C304.404 642.655 305.22 642.479 305.924 642.127C306.66 641.743 307.236 641.199 307.652 640.495C308.068 639.759 308.276 638.879 308.276 637.855C308.276 636.863 308.052 636.047 307.604 635.407C307.188 634.735 306.612 634.239 305.876 633.919C305.172 633.567 304.372 633.391 303.476 633.391C302.58 633.391 301.764 633.567 301.028 633.919C300.324 634.239 299.748 634.687 299.3 635.263C298.884 635.807 298.676 636.399 298.676 637.039V638.191C298.676 638.959 298.884 639.679 299.3 640.351C299.716 641.023 300.292 641.583 301.028 642.031C301.764 642.447 302.58 642.655 303.476 642.655ZM341.327 616.687L329.471 648.511H321.695L331.535 622.591L333.791 623.407H319.823V616.687H341.327ZM343.723 638.191C343.723 636.527 344.027 635.119 344.635 633.967C345.243 632.815 345.979 631.871 346.843 631.135C347.739 630.367 348.555 629.759 349.291 629.311C348.587 628.575 347.979 627.823 347.467 627.055C346.987 626.255 346.747 625.135 346.747 623.695C346.747 622.255 347.147 620.975 347.947 619.855C348.779 618.735 349.883 617.871 351.259 617.263C352.635 616.623 354.155 616.303 355.819 616.303C357.483 616.303 359.003 616.623 360.379 617.263C361.787 617.871 362.907 618.703 363.739 619.759C364.603 620.815 365.035 622.015 365.035 623.359C365.035 624.959 364.763 626.159 364.219 626.959C363.707 627.759 363.067 628.543 362.299 629.311C363.067 629.791 363.867 630.415 364.699 631.183C365.563 631.951 366.299 632.911 366.907 634.063C367.515 635.183 367.819 636.559 367.819 638.191C367.819 640.047 367.291 641.791 366.235 643.423C365.179 645.055 363.739 646.383 361.915 647.407C360.123 648.399 358.059 648.895 355.723 648.895C353.387 648.895 351.307 648.399 349.483 647.407C347.691 646.383 346.283 645.055 345.259 643.423C344.235 641.791 343.723 640.047 343.723 638.191ZM350.875 637.903C350.875 638.831 351.099 639.695 351.547 640.495C351.995 641.263 352.587 641.887 353.323 642.367C354.059 642.815 354.875 643.039 355.771 643.039C356.699 643.039 357.547 642.815 358.315 642.367C359.083 641.887 359.691 641.263 360.139 640.495C360.619 639.695 360.859 638.831 360.859 637.903C360.859 636.975 360.635 636.143 360.187 635.407C359.771 634.639 359.195 634.015 358.459 633.535C357.755 633.055 356.955 632.799 356.059 632.767C355.163 632.735 354.315 632.943 353.515 633.391C352.747 633.839 352.107 634.463 351.595 635.263C351.115 636.031 350.875 636.911 350.875 637.903ZM353.515 624.559C353.515 625.199 353.771 625.759 354.283 626.239C354.827 626.719 355.387 626.959 355.963 626.959C356.539 626.959 357.083 626.719 357.595 626.239C358.107 625.759 358.363 625.199 358.363 624.559C358.363 623.919 358.107 623.359 357.595 622.879C357.115 622.367 356.571 622.111 355.963 622.111C355.355 622.111 354.795 622.367 354.283 622.879C353.771 623.359 353.515 623.919 353.515 624.559ZM380.31 638.575C378.774 638.575 377.286 638.143 375.846 637.279C374.438 636.415 373.27 635.215 372.342 633.679C371.414 632.111 370.95 630.319 370.95 628.303C370.95 625.743 371.51 623.567 372.63 621.775C373.782 619.983 375.254 618.623 377.046 617.695C378.838 616.767 380.726 616.303 382.71 616.303C385.046 616.303 387.126 616.831 388.95 617.887C390.806 618.911 392.278 620.335 393.366 622.159C394.454 623.951 394.998 625.983 394.998 628.255C394.998 630.879 394.534 633.247 393.606 635.359C392.71 637.439 391.494 639.311 389.958 640.975C388.454 642.639 386.774 644.159 384.918 645.535C383.062 646.879 381.19 648.143 379.302 649.327L374.646 644.287C377.206 643.231 379.462 642.031 381.414 640.687C383.366 639.311 384.886 637.887 385.974 636.415C387.062 634.911 387.606 633.439 387.606 631.999L389.334 632.191C388.47 634.207 387.366 635.775 386.022 636.895C384.678 638.015 382.774 638.575 380.31 638.575ZM382.998 632.719C384.342 632.719 385.478 632.287 386.406 631.423C387.334 630.559 387.798 629.583 387.798 628.495V627.391C387.798 626.559 387.59 625.775 387.174 625.039C386.758 624.303 386.182 623.711 385.446 623.263C384.742 622.783 383.926 622.543 382.998 622.543C382.102 622.543 381.286 622.751 380.55 623.167C379.814 623.551 379.238 624.127 378.822 624.895C378.406 625.663 378.198 626.607 378.198 627.727C378.198 628.815 378.406 629.743 378.822 630.511C379.27 631.247 379.846 631.807 380.55 632.191C381.286 632.543 382.102 632.719 382.998 632.719Z" fill="white"/>
<path d="M134.389 471.807V460.767H137.689C138.799 460.767 139.744 460.932 140.524 461.262C141.304 461.592 141.929 462.032 142.399 462.582C142.879 463.132 143.229 463.747 143.449 464.427C143.669 465.107 143.779 465.792 143.779 466.482C143.779 467.302 143.629 468.042 143.329 468.702C143.039 469.352 142.639 469.912 142.129 470.382C141.619 470.842 141.029 471.197 140.359 471.447C139.689 471.687 138.979 471.807 138.229 471.807H134.389ZM136.564 469.707H137.854C138.404 469.707 138.904 469.637 139.354 469.497C139.804 469.347 140.189 469.132 140.509 468.852C140.839 468.572 141.089 468.222 141.259 467.802C141.439 467.372 141.529 466.882 141.529 466.332C141.529 465.612 141.409 465.027 141.169 464.577C140.939 464.117 140.649 463.762 140.299 463.512C139.959 463.262 139.609 463.092 139.249 463.002C138.889 462.902 138.584 462.852 138.334 462.852H136.564V469.707ZM149.141 471.987C148.341 471.987 147.661 471.837 147.101 471.537C146.551 471.237 146.131 470.822 145.841 470.292C145.551 469.762 145.406 469.152 145.406 468.462C145.406 467.802 145.576 467.207 145.916 466.677C146.256 466.147 146.711 465.727 147.281 465.417C147.851 465.097 148.486 464.937 149.186 464.937C150.126 464.937 150.896 465.212 151.496 465.762C152.106 466.302 152.501 467.087 152.681 468.117L147.581 469.737L147.116 468.597L150.806 467.352L150.371 467.547C150.291 467.287 150.146 467.062 149.936 466.872C149.736 466.672 149.431 466.572 149.021 466.572C148.711 466.572 148.436 466.647 148.196 466.797C147.966 466.937 147.786 467.142 147.656 467.412C147.536 467.672 147.476 467.982 147.476 468.342C147.476 468.752 147.551 469.097 147.701 469.377C147.851 469.647 148.056 469.852 148.316 469.992C148.576 470.132 148.866 470.202 149.186 470.202C149.416 470.202 149.636 470.162 149.846 470.082C150.066 470.002 150.281 469.897 150.491 469.767L151.421 471.327C151.071 471.527 150.691 471.687 150.281 471.807C149.881 471.927 149.501 471.987 149.141 471.987ZM156.637 471.942C156.097 471.942 155.592 471.847 155.122 471.657C154.662 471.467 154.272 471.202 153.952 470.862L154.822 469.707C155.142 469.997 155.437 470.207 155.707 470.337C155.987 470.457 156.237 470.517 156.457 470.517C156.627 470.517 156.777 470.502 156.907 470.472C157.047 470.432 157.157 470.377 157.237 470.307C157.317 470.227 157.357 470.127 157.357 470.007C157.357 469.837 157.287 469.702 157.147 469.602C157.017 469.502 156.847 469.422 156.637 469.362C156.427 469.292 156.202 469.222 155.962 469.152C155.362 468.962 154.927 468.687 154.657 468.327C154.397 467.957 154.267 467.557 154.267 467.127C154.267 466.797 154.352 466.467 154.522 466.137C154.702 465.797 154.982 465.517 155.362 465.297C155.752 465.067 156.252 464.952 156.862 464.952C157.412 464.952 157.877 465.007 158.257 465.117C158.637 465.227 158.997 465.407 159.337 465.657L158.542 466.887C158.352 466.737 158.137 466.612 157.897 466.512C157.667 466.402 157.452 466.342 157.252 466.332C157.072 466.322 156.917 466.342 156.787 466.392C156.667 466.442 156.572 466.507 156.502 466.587C156.432 466.667 156.397 466.752 156.397 466.842C156.387 467.032 156.457 467.182 156.607 467.292C156.767 467.402 156.967 467.487 157.207 467.547C157.447 467.607 157.682 467.677 157.912 467.757C158.232 467.857 158.507 467.992 158.737 468.162C158.967 468.332 159.142 468.537 159.262 468.777C159.392 469.007 159.457 469.287 159.457 469.617C159.457 470.017 159.352 470.397 159.142 470.757C158.942 471.107 158.632 471.392 158.212 471.612C157.802 471.832 157.277 471.942 156.637 471.942ZM161.516 465.252H163.616V471.807H161.516V465.252ZM161.471 462.927C161.471 462.617 161.591 462.362 161.831 462.162C162.081 461.962 162.346 461.862 162.626 461.862C162.906 461.862 163.161 461.962 163.391 462.162C163.631 462.362 163.751 462.617 163.751 462.927C163.751 463.237 163.631 463.492 163.391 463.692C163.161 463.882 162.906 463.977 162.626 463.977C162.346 463.977 162.081 463.882 161.831 463.692C161.591 463.492 161.471 463.237 161.471 462.927ZM169.469 475.107C168.879 475.107 168.379 475.037 167.969 474.897C167.569 474.757 167.229 474.587 166.949 474.387C166.669 474.187 166.419 473.997 166.199 473.817L167.429 472.377C167.659 472.587 167.924 472.787 168.224 472.977C168.534 473.177 168.939 473.277 169.439 473.277C169.769 473.277 170.074 473.217 170.354 473.097C170.644 472.987 170.874 472.822 171.044 472.602C171.224 472.382 171.314 472.107 171.314 471.777V470.337L171.389 470.712C171.229 471.052 170.939 471.352 170.519 471.612C170.099 471.862 169.549 471.987 168.869 471.987C168.279 471.987 167.729 471.837 167.219 471.537C166.719 471.227 166.319 470.812 166.019 470.292C165.719 469.762 165.569 469.162 165.569 468.492C165.569 467.802 165.729 467.192 166.049 466.662C166.369 466.122 166.784 465.697 167.294 465.387C167.804 465.077 168.344 464.922 168.914 464.922C169.484 464.922 169.974 465.007 170.384 465.177C170.804 465.337 171.119 465.537 171.329 465.777L171.254 465.972L171.479 465.252H173.414V471.807C173.414 472.447 173.234 473.012 172.874 473.502C172.514 474.002 172.034 474.392 171.434 474.672C170.844 474.962 170.189 475.107 169.469 475.107ZM167.684 468.432C167.684 468.782 167.764 469.097 167.924 469.377C168.084 469.657 168.299 469.877 168.569 470.037C168.849 470.197 169.159 470.277 169.499 470.277C169.789 470.277 170.044 470.242 170.264 470.172C170.494 470.092 170.694 469.982 170.864 469.842C171.044 469.692 171.194 469.507 171.314 469.287V467.682C171.224 467.462 171.089 467.277 170.909 467.127C170.729 466.967 170.519 466.847 170.279 466.767C170.049 466.677 169.789 466.632 169.499 466.632C169.159 466.632 168.849 466.712 168.569 466.872C168.299 467.022 168.084 467.232 167.924 467.502C167.764 467.772 167.684 468.082 167.684 468.432ZM177.776 465.252L177.941 466.422L177.911 466.317C178.141 465.907 178.466 465.577 178.886 465.327C179.306 465.067 179.821 464.937 180.431 464.937C181.051 464.937 181.566 465.122 181.976 465.492C182.396 465.852 182.611 466.322 182.621 466.902V471.807H180.521V467.682C180.511 467.392 180.431 467.162 180.281 466.992C180.141 466.812 179.901 466.722 179.561 466.722C179.241 466.722 178.961 466.827 178.721 467.037C178.481 467.247 178.296 467.532 178.166 467.892C178.036 468.252 177.971 468.667 177.971 469.137V471.807H175.871V465.252H177.776ZM188.302 471.987C187.502 471.987 186.822 471.837 186.262 471.537C185.712 471.237 185.292 470.822 185.002 470.292C184.712 469.762 184.567 469.152 184.567 468.462C184.567 467.802 184.737 467.207 185.077 466.677C185.417 466.147 185.872 465.727 186.442 465.417C187.012 465.097 187.647 464.937 188.347 464.937C189.287 464.937 190.057 465.212 190.657 465.762C191.267 466.302 191.662 467.087 191.842 468.117L186.742 469.737L186.277 468.597L189.967 467.352L189.532 467.547C189.452 467.287 189.307 467.062 189.097 466.872C188.897 466.672 188.592 466.572 188.182 466.572C187.872 466.572 187.597 466.647 187.357 466.797C187.127 466.937 186.947 467.142 186.817 467.412C186.697 467.672 186.637 467.982 186.637 468.342C186.637 468.752 186.712 469.097 186.862 469.377C187.012 469.647 187.217 469.852 187.477 469.992C187.737 470.132 188.027 470.202 188.347 470.202C188.577 470.202 188.797 470.162 189.007 470.082C189.227 470.002 189.442 469.897 189.652 469.767L190.582 471.327C190.232 471.527 189.852 471.687 189.442 471.807C189.042 471.927 188.662 471.987 188.302 471.987ZM196.338 471.987C195.728 471.987 195.183 471.847 194.703 471.567C194.223 471.277 193.843 470.862 193.563 470.322C193.293 469.782 193.158 469.142 193.158 468.402C193.158 467.662 193.308 467.032 193.608 466.512C193.908 465.992 194.318 465.597 194.838 465.327C195.358 465.057 195.948 464.922 196.608 464.922C197.028 464.922 197.428 464.987 197.808 465.117C198.198 465.247 198.523 465.447 198.783 465.717V466.377V459.972H200.868V471.807H198.768V470.532L198.933 470.982C198.593 471.262 198.213 471.502 197.793 471.702C197.373 471.892 196.888 471.987 196.338 471.987ZM197.028 470.217C197.308 470.217 197.553 470.182 197.763 470.112C197.983 470.032 198.173 469.922 198.333 469.782C198.503 469.632 198.648 469.447 198.768 469.227V467.622C198.688 467.402 198.563 467.217 198.393 467.067C198.233 466.907 198.033 466.787 197.793 466.707C197.563 466.617 197.308 466.572 197.028 466.572C196.718 466.572 196.428 466.652 196.158 466.812C195.898 466.962 195.688 467.172 195.528 467.442C195.368 467.712 195.288 468.022 195.288 468.372C195.288 468.722 195.368 469.037 195.528 469.317C195.688 469.597 195.898 469.817 196.158 469.977C196.428 470.137 196.718 470.217 197.028 470.217ZM212.811 471.987C212.261 471.987 211.796 471.897 211.416 471.717C211.046 471.527 210.721 471.282 210.441 470.982L210.606 470.532V471.807H208.506V459.972H210.591V466.377V465.702C210.851 465.482 211.196 465.297 211.626 465.147C212.056 464.997 212.546 464.922 213.096 464.922C213.666 464.922 214.186 465.057 214.656 465.327C215.126 465.597 215.501 465.992 215.781 466.512C216.071 467.022 216.216 467.647 216.216 468.387C216.216 469.127 216.056 469.767 215.736 470.307C215.426 470.847 215.011 471.262 214.491 471.552C213.971 471.842 213.411 471.987 212.811 471.987ZM212.346 470.217C212.656 470.217 212.941 470.137 213.201 469.977C213.471 469.817 213.686 469.597 213.846 469.317C214.006 469.037 214.086 468.722 214.086 468.372C214.086 468.022 214.006 467.712 213.846 467.442C213.686 467.172 213.471 466.962 213.201 466.812C212.941 466.652 212.656 466.572 212.346 466.572C212.076 466.572 211.821 466.617 211.581 466.707C211.351 466.787 211.151 466.907 210.981 467.067C210.821 467.217 210.696 467.402 210.606 467.622V469.227C210.726 469.447 210.866 469.632 211.026 469.782C211.196 469.922 211.391 470.032 211.611 470.112C211.831 470.182 212.076 470.217 212.346 470.217ZM218.692 474.957L223.057 465.252H224.947L220.717 474.957H218.692ZM220.447 471.837L217.237 465.252H219.592L222.067 470.787L220.447 471.837ZM237.897 463.437C237.477 463.207 237.047 463.017 236.607 462.867C236.177 462.717 235.772 462.642 235.392 462.642C234.922 462.642 234.552 462.737 234.282 462.927C234.012 463.117 233.877 463.402 233.877 463.782C233.877 464.042 233.977 464.277 234.177 464.487C234.387 464.687 234.652 464.867 234.972 465.027C235.302 465.187 235.642 465.332 235.992 465.462C236.312 465.582 236.627 465.727 236.937 465.897C237.257 466.057 237.542 466.262 237.792 466.512C238.042 466.752 238.242 467.057 238.392 467.427C238.542 467.787 238.617 468.232 238.617 468.762C238.617 469.322 238.472 469.842 238.182 470.322C237.892 470.802 237.467 471.192 236.907 471.492C236.347 471.782 235.657 471.927 234.837 471.927C234.417 471.927 233.987 471.887 233.547 471.807C233.117 471.717 232.692 471.587 232.272 471.417C231.852 471.237 231.447 471.012 231.057 470.742L232.017 469.047C232.277 469.237 232.557 469.407 232.857 469.557C233.167 469.697 233.477 469.807 233.787 469.887C234.097 469.967 234.382 470.007 234.642 470.007C234.902 470.007 235.162 469.972 235.422 469.902C235.692 469.822 235.912 469.692 236.082 469.512C236.262 469.332 236.352 469.082 236.352 468.762C236.352 468.542 236.277 468.342 236.127 468.162C235.987 467.982 235.792 467.817 235.542 467.667C235.302 467.517 235.037 467.387 234.747 467.277C234.407 467.147 234.057 466.997 233.697 466.827C233.337 466.657 232.997 466.452 232.677 466.212C232.367 465.962 232.112 465.657 231.912 465.297C231.722 464.927 231.627 464.477 231.627 463.947C231.627 463.307 231.767 462.752 232.047 462.282C232.337 461.812 232.742 461.442 233.262 461.172C233.782 460.892 234.382 460.737 235.062 460.707C235.952 460.707 236.672 460.812 237.222 461.022C237.782 461.232 238.282 461.482 238.722 461.772L237.897 463.437ZM243.462 471.987C242.852 471.987 242.297 471.867 241.797 471.627C241.307 471.377 240.917 470.997 240.627 470.487C240.337 469.977 240.192 469.327 240.192 468.537C240.192 467.797 240.342 467.157 240.642 466.617C240.942 466.077 241.337 465.662 241.827 465.372C242.317 465.072 242.837 464.922 243.387 464.922C244.037 464.922 244.527 465.032 244.857 465.252C245.197 465.462 245.477 465.697 245.697 465.957L245.607 466.212L245.802 465.252H247.752V471.807H245.652V470.382L245.817 470.832C245.797 470.832 245.737 470.892 245.637 471.012C245.537 471.122 245.387 471.257 245.187 471.417C244.997 471.567 244.757 471.697 244.467 471.807C244.187 471.927 243.852 471.987 243.462 471.987ZM244.062 470.277C244.312 470.277 244.537 470.242 244.737 470.172C244.937 470.092 245.112 469.982 245.262 469.842C245.412 469.692 245.542 469.507 245.652 469.287V467.682C245.572 467.462 245.452 467.277 245.292 467.127C245.132 466.967 244.942 466.847 244.722 466.767C244.502 466.677 244.257 466.632 243.987 466.632C243.687 466.632 243.407 466.712 243.147 466.872C242.897 467.022 242.697 467.232 242.547 467.502C242.397 467.772 242.322 468.082 242.322 468.432C242.322 468.782 242.402 469.097 242.562 469.377C242.722 469.657 242.932 469.877 243.192 470.037C243.462 470.197 243.752 470.277 244.062 470.277ZM252.121 465.252L252.286 466.422L252.256 466.317C252.486 465.907 252.811 465.577 253.231 465.327C253.651 465.067 254.166 464.937 254.776 464.937C255.396 464.937 255.911 465.122 256.321 465.492C256.741 465.852 256.956 466.322 256.966 466.902V471.807H254.866V467.682C254.856 467.392 254.776 467.162 254.626 466.992C254.486 466.812 254.246 466.722 253.906 466.722C253.586 466.722 253.306 466.827 253.066 467.037C252.826 467.247 252.641 467.532 252.511 467.892C252.381 468.252 252.316 468.667 252.316 469.137V471.807H250.216V465.252H252.121ZM260.038 462.372H262.138V465.222H263.728V466.857H262.138V471.807H260.038V466.857H259.018V465.222H260.038V462.372ZM265.626 465.252H267.726V471.807H265.626V465.252ZM265.581 462.927C265.581 462.617 265.701 462.362 265.941 462.162C266.191 461.962 266.456 461.862 266.736 461.862C267.016 461.862 267.271 461.962 267.501 462.162C267.741 462.362 267.861 462.617 267.861 462.927C267.861 463.237 267.741 463.492 267.501 463.692C267.271 463.882 267.016 463.977 266.736 463.977C266.456 463.977 266.191 463.882 265.941 463.692C265.701 463.492 265.581 463.237 265.581 462.927ZM272.949 471.987C272.339 471.987 271.784 471.867 271.284 471.627C270.794 471.377 270.404 470.997 270.114 470.487C269.824 469.977 269.679 469.327 269.679 468.537C269.679 467.797 269.829 467.157 270.129 466.617C270.429 466.077 270.824 465.662 271.314 465.372C271.804 465.072 272.324 464.922 272.874 464.922C273.524 464.922 274.014 465.032 274.344 465.252C274.684 465.462 274.964 465.697 275.184 465.957L275.094 466.212L275.289 465.252H277.239V471.807H275.139V470.382L275.304 470.832C275.284 470.832 275.224 470.892 275.124 471.012C275.024 471.122 274.874 471.257 274.674 471.417C274.484 471.567 274.244 471.697 273.954 471.807C273.674 471.927 273.339 471.987 272.949 471.987ZM273.549 470.277C273.799 470.277 274.024 470.242 274.224 470.172C274.424 470.092 274.599 469.982 274.749 469.842C274.899 469.692 275.029 469.507 275.139 469.287V467.682C275.059 467.462 274.939 467.277 274.779 467.127C274.619 466.967 274.429 466.847 274.209 466.767C273.989 466.677 273.744 466.632 273.474 466.632C273.174 466.632 272.894 466.712 272.634 466.872C272.384 467.022 272.184 467.232 272.034 467.502C271.884 467.772 271.809 468.082 271.809 468.432C271.809 468.782 271.889 469.097 272.049 469.377C272.209 469.657 272.419 469.877 272.679 470.037C272.949 470.197 273.239 470.277 273.549 470.277ZM283.092 475.107C282.502 475.107 282.002 475.037 281.592 474.897C281.192 474.757 280.852 474.587 280.572 474.387C280.292 474.187 280.042 473.997 279.822 473.817L281.052 472.377C281.282 472.587 281.547 472.787 281.847 472.977C282.157 473.177 282.562 473.277 283.062 473.277C283.392 473.277 283.697 473.217 283.977 473.097C284.267 472.987 284.497 472.822 284.667 472.602C284.847 472.382 284.937 472.107 284.937 471.777V470.337L285.012 470.712C284.852 471.052 284.562 471.352 284.142 471.612C283.722 471.862 283.172 471.987 282.492 471.987C281.902 471.987 281.352 471.837 280.842 471.537C280.342 471.227 279.942 470.812 279.642 470.292C279.342 469.762 279.192 469.162 279.192 468.492C279.192 467.802 279.352 467.192 279.672 466.662C279.992 466.122 280.407 465.697 280.917 465.387C281.427 465.077 281.967 464.922 282.537 464.922C283.107 464.922 283.597 465.007 284.007 465.177C284.427 465.337 284.742 465.537 284.952 465.777L284.877 465.972L285.102 465.252H287.037V471.807C287.037 472.447 286.857 473.012 286.497 473.502C286.137 474.002 285.657 474.392 285.057 474.672C284.467 474.962 283.812 475.107 283.092 475.107ZM281.307 468.432C281.307 468.782 281.387 469.097 281.547 469.377C281.707 469.657 281.922 469.877 282.192 470.037C282.472 470.197 282.782 470.277 283.122 470.277C283.412 470.277 283.667 470.242 283.887 470.172C284.117 470.092 284.317 469.982 284.487 469.842C284.667 469.692 284.817 469.507 284.937 469.287V467.682C284.847 467.462 284.712 467.277 284.532 467.127C284.352 466.967 284.142 466.847 283.902 466.767C283.672 466.677 283.412 466.632 283.122 466.632C282.782 466.632 282.472 466.712 282.192 466.872C281.922 467.022 281.707 467.232 281.547 467.502C281.387 467.772 281.307 468.082 281.307 468.432ZM288.985 468.447C288.985 467.777 289.14 467.177 289.45 466.647C289.77 466.117 290.215 465.702 290.785 465.402C291.355 465.092 292.01 464.937 292.75 464.937C293.5 464.937 294.15 465.092 294.7 465.402C295.25 465.702 295.67 466.117 295.96 466.647C296.26 467.177 296.41 467.777 296.41 468.447C296.41 469.117 296.26 469.722 295.96 470.262C295.67 470.792 295.25 471.212 294.7 471.522C294.15 471.832 293.49 471.987 292.72 471.987C292 471.987 291.355 471.847 290.785 471.567C290.225 471.287 289.785 470.882 289.465 470.352C289.145 469.822 288.985 469.187 288.985 468.447ZM291.1 468.462C291.1 468.802 291.17 469.112 291.31 469.392C291.45 469.662 291.64 469.877 291.88 470.037C292.12 470.197 292.39 470.277 292.69 470.277C293.02 470.277 293.305 470.197 293.545 470.037C293.785 469.877 293.97 469.662 294.1 469.392C294.23 469.112 294.295 468.802 294.295 468.462C294.295 468.112 294.23 467.802 294.1 467.532C293.97 467.262 293.785 467.047 293.545 466.887C293.305 466.727 293.02 466.647 292.69 466.647C292.39 466.647 292.12 466.727 291.88 466.887C291.64 467.047 291.45 467.262 291.31 467.532C291.17 467.802 291.1 468.112 291.1 468.462ZM303.212 466.302C303.212 465.542 303.357 464.822 303.647 464.142C303.937 463.462 304.337 462.862 304.847 462.342C305.367 461.812 305.967 461.397 306.647 461.097C307.327 460.797 308.057 460.647 308.837 460.647C309.607 460.647 310.332 460.797 311.012 461.097C311.692 461.397 312.292 461.812 312.812 462.342C313.342 462.862 313.752 463.462 314.042 464.142C314.342 464.822 314.492 465.542 314.492 466.302C314.492 467.082 314.342 467.812 314.042 468.492C313.752 469.172 313.342 469.772 312.812 470.292C312.292 470.802 311.692 471.202 311.012 471.492C310.332 471.782 309.607 471.927 308.837 471.927C308.057 471.927 307.327 471.782 306.647 471.492C305.967 471.202 305.367 470.802 304.847 470.292C304.337 469.772 303.937 469.172 303.647 468.492C303.357 467.812 303.212 467.082 303.212 466.302ZM305.462 466.302C305.462 466.792 305.547 467.252 305.717 467.682C305.897 468.102 306.142 468.477 306.452 468.807C306.772 469.127 307.137 469.377 307.547 469.557C307.967 469.737 308.422 469.827 308.912 469.827C309.382 469.827 309.817 469.737 310.217 469.557C310.627 469.377 310.982 469.127 311.282 468.807C311.582 468.477 311.817 468.102 311.987 467.682C312.157 467.252 312.242 466.792 312.242 466.302C312.242 465.802 312.152 465.337 311.972 464.907C311.802 464.477 311.562 464.102 311.252 463.782C310.952 463.452 310.597 463.197 310.187 463.017C309.777 462.837 309.332 462.747 308.852 462.747C308.372 462.747 307.927 462.837 307.517 463.017C307.107 463.197 306.747 463.452 306.437 463.782C306.127 464.102 305.887 464.477 305.717 464.907C305.547 465.337 305.462 465.802 305.462 466.302ZM318.505 465.252L318.7 467.052L318.655 466.782C318.845 466.392 319.105 466.062 319.435 465.792C319.765 465.512 320.09 465.297 320.41 465.147C320.74 464.997 320.99 464.922 321.16 464.922L321.055 467.022C320.565 466.962 320.145 467.042 319.795 467.262C319.445 467.482 319.175 467.772 318.985 468.132C318.795 468.492 318.7 468.862 318.7 469.242V471.807H316.615V465.252H318.505ZM322.265 468.447C322.265 467.777 322.42 467.177 322.73 466.647C323.05 466.117 323.495 465.702 324.065 465.402C324.635 465.092 325.29 464.937 326.03 464.937C326.78 464.937 327.43 465.092 327.98 465.402C328.53 465.702 328.95 466.117 329.24 466.647C329.54 467.177 329.69 467.777 329.69 468.447C329.69 469.117 329.54 469.722 329.24 470.262C328.95 470.792 328.53 471.212 327.98 471.522C327.43 471.832 326.77 471.987 326 471.987C325.28 471.987 324.635 471.847 324.065 471.567C323.505 471.287 323.065 470.882 322.745 470.352C322.425 469.822 322.265 469.187 322.265 468.447ZM324.38 468.462C324.38 468.802 324.45 469.112 324.59 469.392C324.73 469.662 324.92 469.877 325.16 470.037C325.4 470.197 325.67 470.277 325.97 470.277C326.3 470.277 326.585 470.197 326.825 470.037C327.065 469.877 327.25 469.662 327.38 469.392C327.51 469.112 327.575 468.802 327.575 468.462C327.575 468.112 327.51 467.802 327.38 467.532C327.25 467.262 327.065 467.047 326.825 466.887C326.585 466.727 326.3 466.647 325.97 466.647C325.67 466.647 325.4 466.727 325.16 466.887C324.92 467.047 324.73 467.262 324.59 467.532C324.45 467.802 324.38 468.112 324.38 468.462ZM332.664 466.962C332.304 466.962 331.989 466.832 331.719 466.572C331.449 466.312 331.314 465.962 331.314 465.522V464.622H332.889V464.832C332.889 465.042 332.924 465.167 332.994 465.207C333.074 465.237 333.209 465.252 333.399 465.252H337.554L333.924 470.532L333.534 470.097H337.509V471.807H330.864L334.599 466.362L334.914 466.962H332.664ZM345.346 471.222C345.056 471.452 344.691 471.637 344.251 471.777C343.821 471.917 343.396 471.987 342.976 471.987C342.226 471.987 341.571 471.852 341.011 471.582C340.461 471.302 340.031 470.907 339.721 470.397C339.421 469.877 339.271 469.252 339.271 468.522C339.271 467.792 339.436 467.172 339.766 466.662C340.096 466.142 340.526 465.747 341.056 465.477C341.596 465.207 342.161 465.072 342.751 465.072C343.341 465.072 343.851 465.152 344.281 465.312C344.721 465.472 345.096 465.682 345.406 465.942L344.386 467.292C344.246 467.182 344.051 467.072 343.801 466.962C343.561 466.842 343.276 466.782 342.946 466.782C342.656 466.782 342.391 466.857 342.151 467.007C341.911 467.157 341.721 467.362 341.581 467.622C341.441 467.882 341.371 468.182 341.371 468.522C341.371 468.842 341.446 469.137 341.596 469.407C341.746 469.677 341.951 469.892 342.211 470.052C342.481 470.202 342.796 470.277 343.156 470.277C343.386 470.277 343.596 470.247 343.786 470.187C343.986 470.117 344.156 470.022 344.296 469.902L345.346 471.222ZM346.749 468.447C346.749 467.777 346.904 467.177 347.214 466.647C347.534 466.117 347.979 465.702 348.549 465.402C349.119 465.092 349.774 464.937 350.514 464.937C351.264 464.937 351.914 465.092 352.464 465.402C353.014 465.702 353.434 466.117 353.724 466.647C354.024 467.177 354.174 467.777 354.174 468.447C354.174 469.117 354.024 469.722 353.724 470.262C353.434 470.792 353.014 471.212 352.464 471.522C351.914 471.832 351.254 471.987 350.484 471.987C349.764 471.987 349.119 471.847 348.549 471.567C347.989 471.287 347.549 470.882 347.229 470.352C346.909 469.822 346.749 469.187 346.749 468.447ZM348.864 468.462C348.864 468.802 348.934 469.112 349.074 469.392C349.214 469.662 349.404 469.877 349.644 470.037C349.884 470.197 350.154 470.277 350.454 470.277C350.784 470.277 351.069 470.197 351.309 470.037C351.549 469.877 351.734 469.662 351.864 469.392C351.994 469.112 352.059 468.802 352.059 468.462C352.059 468.112 351.994 467.802 351.864 467.532C351.734 467.262 351.549 467.047 351.309 466.887C351.069 466.727 350.784 466.647 350.454 466.647C350.154 466.647 349.884 466.727 349.644 466.887C349.404 467.047 349.214 467.262 349.074 467.532C348.934 467.802 348.864 468.112 348.864 468.462Z" fill="white"/>
<path d="M1925.43 49.1165L1721.91 131.676L1728.44 99.4205L1925.43 174.3V240.348L1629.75 111.324L1925.43 -17.6995V49.1165ZM1857.08 447.834C1862.96 437.082 1867.83 426.074 1871.67 414.81C1875.51 403.802 1877.43 393.434 1877.43 383.706C1877.43 371.674 1875 362.202 1870.13 355.29C1865.27 348.378 1857.97 344.922 1848.24 344.922C1841.59 344.922 1835.57 347.482 1830.2 352.602C1825.08 357.978 1820.47 364.762 1816.37 372.954C1812.28 381.402 1808.56 390.106 1805.24 399.066C1802.16 407.258 1798.45 415.322 1794.1 423.258C1790 431.45 1784.76 438.746 1778.36 445.146C1772.21 451.546 1764.4 456.666 1754.93 460.506C1745.72 464.346 1734.32 466.266 1720.76 466.266C1706.42 466.266 1693.11 462.554 1680.82 455.13C1668.53 447.706 1658.55 436.826 1650.87 422.49C1643.44 408.154 1639.73 390.49 1639.73 369.498C1639.73 358.746 1640.76 347.738 1642.8 336.474C1645.11 325.466 1648.44 314.586 1652.79 303.834C1657.4 293.082 1663.16 282.714 1670.07 272.73L1713.46 297.306C1708.6 303.962 1704.24 311.13 1700.4 318.81C1696.82 326.746 1694 334.682 1691.96 342.618C1689.91 350.554 1688.88 357.85 1688.88 364.506C1688.88 371.162 1689.78 377.818 1691.57 384.474C1693.62 391.386 1696.95 397.018 1701.56 401.37C1706.16 405.978 1712.56 408.282 1720.76 408.282C1726.39 408.282 1731.51 406.362 1736.12 402.522C1740.72 398.938 1744.95 393.946 1748.79 387.546C1752.63 381.402 1755.96 374.618 1758.77 367.194C1762.1 358.49 1765.94 349.53 1770.29 340.314C1774.64 331.098 1779.89 322.394 1786.04 314.202C1792.44 306.266 1800.24 299.738 1809.46 294.618C1818.93 289.754 1830.45 287.322 1844.02 287.322C1860.4 287.322 1874.61 290.906 1886.64 298.074C1898.68 305.498 1908.15 315.866 1915.06 329.178C1922.23 342.49 1926.2 357.85 1926.96 375.258C1926.96 398.042 1924.28 416.474 1918.9 430.554C1913.52 444.89 1907.12 457.69 1899.7 468.954L1857.08 447.834ZM1642.8 528.477H1936.95V528.861L1714.23 685.917L1719.6 662.109L1936.95 818.781V819.549H1642.8V763.869H1811.38L1782.58 767.325L1646.64 671.709V670.941L1782.58 572.637L1809.08 582.237H1642.8V528.477ZM1925.43 900.282V955.962H1696.56V1088.83H1642.8V900.282H1925.43Z" fill="white"/>
</g>
<defs>
<linearGradient id="paint0_linear_3_168" x1="140.276" y1="933.643" x2="173.54" y2="966.709" gradientUnits="userSpaceOnUse">
<stop offset="0.195" stop-color="white" stop-opacity="0.25"/>
<stop offset="0.66" stop-color="white"/>
</linearGradient>
<clipPath id="clip0_3_168">
<rect width="1920" height="1080" fill="white" transform="translate(0 0.0124512)"/>
</clipPath>
</defs>
</svg>
