<svg width="1920" height="768" viewBox="0 0 1920 768" fill="none" xmlns="http://www.w3.org/2000/svg">
<rect width="1920" height="256" fill="#28A1F1"/>
<path d="M974.734 116.814L988.494 150.734L983.118 149.646L995.598 116.814H1006.61L985.102 166.094L963.598 116.814H974.734ZM1041.19 128.206C1039.39 127.225 1037.56 126.414 1035.68 125.774C1033.85 125.134 1032.12 124.814 1030.5 124.814C1028.49 124.814 1026.91 125.219 1025.76 126.03C1024.61 126.841 1024.03 128.057 1024.03 129.678C1024.03 130.787 1024.46 131.79 1025.31 132.686C1026.21 133.539 1027.34 134.307 1028.71 134.99C1030.11 135.673 1031.57 136.291 1033.06 136.846C1034.42 137.358 1035.77 137.977 1037.09 138.702C1038.46 139.385 1039.67 140.259 1040.74 141.326C1041.81 142.35 1042.66 143.651 1043.3 145.23C1043.94 146.766 1044.26 148.665 1044.26 150.926C1044.26 153.315 1043.64 155.534 1042.4 157.582C1041.17 159.63 1039.35 161.294 1036.96 162.574C1034.57 163.811 1031.63 164.43 1028.13 164.43C1026.34 164.43 1024.5 164.259 1022.63 163.918C1020.79 163.534 1018.98 162.979 1017.19 162.254C1015.39 161.486 1013.67 160.526 1012 159.374L1016.1 152.142C1017.21 152.953 1018.4 153.678 1019.68 154.318C1021.01 154.915 1022.33 155.385 1023.65 155.726C1024.97 156.067 1026.19 156.238 1027.3 156.238C1028.41 156.238 1029.52 156.089 1030.63 155.79C1031.78 155.449 1032.72 154.894 1033.44 154.126C1034.21 153.358 1034.59 152.291 1034.59 150.926C1034.59 149.987 1034.27 149.134 1033.63 148.366C1033.04 147.598 1032.21 146.894 1031.14 146.254C1030.11 145.614 1028.98 145.059 1027.75 144.59C1026.3 144.035 1024.8 143.395 1023.27 142.67C1021.73 141.945 1020.28 141.07 1018.91 140.046C1017.59 138.979 1016.5 137.678 1015.65 136.142C1014.84 134.563 1014.43 132.643 1014.43 130.382C1014.43 127.651 1015.03 125.283 1016.23 123.278C1017.46 121.273 1019.19 119.694 1021.41 118.542C1023.63 117.347 1026.19 116.686 1029.09 116.558C1032.89 116.558 1035.96 117.006 1038.31 117.902C1040.7 118.798 1042.83 119.865 1044.71 121.102L1041.19 128.206ZM1054.63 163.918V114.894H1054.69L1080.87 152.014L1076.9 151.118L1103.01 114.894H1103.14V163.918H1093.86V135.822L1094.44 140.622L1078.5 163.278H1078.37L1061.99 140.622L1063.59 136.206V163.918H1054.63ZM1116.59 116.814H1125.87V154.958H1148.02V163.918H1116.59V116.814Z" fill="white"/>
<path fill-rule="evenodd" clip-rule="evenodd" d="M849.364 194.378L808.387 127.985H782.28V153.249L808.169 194.47L849.364 194.47V194.378Z" fill="url(#paint0_linear_15_123)" fill-opacity="0.5"/>
<path d="M823.906 128L782.314 153.359V102.641L823.906 128Z" fill="white"/>
<path d="M890.255 61.5H931.45L849.364 194.5H808.169L890.255 61.5Z" fill="white"/>
<rect width="1920" height="256" transform="translate(0 256)" fill="#323232"/>
<path d="M974.734 372.814L988.494 406.734L983.118 405.646L995.598 372.814H1006.61L985.102 422.094L963.598 372.814H974.734ZM1041.19 384.206C1039.39 383.225 1037.56 382.414 1035.68 381.774C1033.85 381.134 1032.12 380.814 1030.5 380.814C1028.49 380.814 1026.91 381.219 1025.76 382.03C1024.61 382.841 1024.03 384.057 1024.03 385.678C1024.03 386.787 1024.46 387.79 1025.31 388.686C1026.21 389.539 1027.34 390.307 1028.71 390.99C1030.11 391.673 1031.57 392.291 1033.06 392.846C1034.42 393.358 1035.77 393.977 1037.09 394.702C1038.46 395.385 1039.67 396.259 1040.74 397.326C1041.81 398.35 1042.66 399.651 1043.3 401.23C1043.94 402.766 1044.26 404.665 1044.26 406.926C1044.26 409.315 1043.64 411.534 1042.4 413.582C1041.17 415.63 1039.35 417.294 1036.96 418.574C1034.57 419.811 1031.63 420.43 1028.13 420.43C1026.34 420.43 1024.5 420.259 1022.63 419.918C1020.79 419.534 1018.98 418.979 1017.19 418.254C1015.39 417.486 1013.67 416.526 1012 415.374L1016.1 408.142C1017.21 408.953 1018.4 409.678 1019.68 410.318C1021.01 410.915 1022.33 411.385 1023.65 411.726C1024.97 412.067 1026.19 412.238 1027.3 412.238C1028.41 412.238 1029.52 412.089 1030.63 411.79C1031.78 411.449 1032.72 410.894 1033.44 410.126C1034.21 409.358 1034.59 408.291 1034.59 406.926C1034.59 405.987 1034.27 405.134 1033.63 404.366C1033.04 403.598 1032.21 402.894 1031.14 402.254C1030.11 401.614 1028.98 401.059 1027.75 400.59C1026.3 400.035 1024.8 399.395 1023.27 398.67C1021.73 397.945 1020.28 397.07 1018.91 396.046C1017.59 394.979 1016.5 393.678 1015.65 392.142C1014.84 390.563 1014.43 388.643 1014.43 386.382C1014.43 383.651 1015.03 381.283 1016.23 379.278C1017.46 377.273 1019.19 375.694 1021.41 374.542C1023.63 373.347 1026.19 372.686 1029.09 372.558C1032.89 372.558 1035.96 373.006 1038.31 373.902C1040.7 374.798 1042.83 375.865 1044.71 377.102L1041.19 384.206ZM1054.63 419.918V370.894H1054.69L1080.87 408.014L1076.9 407.118L1103.01 370.894H1103.14V419.918H1093.86V391.822L1094.44 396.622L1078.5 419.278H1078.37L1061.99 396.622L1063.59 392.206V419.918H1054.63ZM1116.59 372.814H1125.87V410.958H1148.02V419.918H1116.59V372.814Z" fill="white"/>
<path fill-rule="evenodd" clip-rule="evenodd" d="M849.364 450.378L808.387 383.985H782.28V409.249L808.169 450.47L849.364 450.47V450.378Z" fill="url(#paint1_linear_15_123)" fill-opacity="0.5"/>
<path d="M823.906 384L782.314 409.359V358.641L823.906 384Z" fill="white"/>
<path d="M890.255 317.5H931.45L849.364 450.5H808.169L890.255 317.5Z" fill="white"/>
<rect width="1920" height="256" transform="translate(0 512)" fill="white"/>
<path d="M974.734 628.814L988.494 662.734L983.118 661.646L995.598 628.814H1006.61L985.102 678.094L963.598 628.814H974.734ZM1041.19 640.206C1039.39 639.225 1037.56 638.414 1035.68 637.774C1033.85 637.134 1032.12 636.814 1030.5 636.814C1028.49 636.814 1026.91 637.219 1025.76 638.03C1024.61 638.841 1024.03 640.057 1024.03 641.678C1024.03 642.787 1024.46 643.79 1025.31 644.686C1026.21 645.539 1027.34 646.307 1028.71 646.99C1030.11 647.673 1031.57 648.291 1033.06 648.846C1034.42 649.358 1035.77 649.977 1037.09 650.702C1038.46 651.385 1039.67 652.259 1040.74 653.326C1041.81 654.35 1042.66 655.651 1043.3 657.23C1043.94 658.766 1044.26 660.665 1044.26 662.926C1044.26 665.315 1043.64 667.534 1042.4 669.582C1041.17 671.63 1039.35 673.294 1036.96 674.574C1034.57 675.811 1031.63 676.43 1028.13 676.43C1026.34 676.43 1024.5 676.259 1022.63 675.918C1020.79 675.534 1018.98 674.979 1017.19 674.254C1015.39 673.486 1013.67 672.526 1012 671.374L1016.1 664.142C1017.21 664.953 1018.4 665.678 1019.68 666.318C1021.01 666.915 1022.33 667.385 1023.65 667.726C1024.97 668.067 1026.19 668.238 1027.3 668.238C1028.41 668.238 1029.52 668.089 1030.63 667.79C1031.78 667.449 1032.72 666.894 1033.44 666.126C1034.21 665.358 1034.59 664.291 1034.59 662.926C1034.59 661.987 1034.27 661.134 1033.63 660.366C1033.04 659.598 1032.21 658.894 1031.14 658.254C1030.11 657.614 1028.98 657.059 1027.75 656.59C1026.3 656.035 1024.8 655.395 1023.27 654.67C1021.73 653.945 1020.28 653.07 1018.91 652.046C1017.59 650.979 1016.5 649.678 1015.65 648.142C1014.84 646.563 1014.43 644.643 1014.43 642.382C1014.43 639.651 1015.03 637.283 1016.23 635.278C1017.46 633.273 1019.19 631.694 1021.41 630.542C1023.63 629.347 1026.19 628.686 1029.09 628.558C1032.89 628.558 1035.96 629.006 1038.31 629.902C1040.7 630.798 1042.83 631.865 1044.71 633.102L1041.19 640.206ZM1054.63 675.918V626.894H1054.69L1080.87 664.014L1076.9 663.118L1103.01 626.894H1103.14V675.918H1093.86V647.822L1094.44 652.622L1078.5 675.278H1078.37L1061.99 652.622L1063.59 648.206V675.918H1054.63ZM1116.59 628.814H1125.87V666.958H1148.02V675.918H1116.59V628.814Z" fill="#28A1F1"/>
<path fill-rule="evenodd" clip-rule="evenodd" d="M849.364 706.378L808.387 639.985H782.28V665.249L808.169 706.47L849.364 706.47V706.378Z" fill="url(#paint2_linear_15_123)" fill-opacity="0.5"/>
<path d="M823.906 640L782.314 665.359V614.641L823.906 640Z" fill="#28A1F1"/>
<path d="M890.255 573.5H931.45L849.364 706.5H808.169L890.255 573.5Z" fill="#28A1F1"/>
<defs>
<linearGradient id="paint0_linear_15_123" x1="782.28" y1="127.985" x2="849.311" y2="194.524" gradientUnits="userSpaceOnUse">
<stop offset="0.195" stop-color="white" stop-opacity="0.25"/>
<stop offset="0.66" stop-color="white"/>
</linearGradient>
<linearGradient id="paint1_linear_15_123" x1="782.28" y1="383.985" x2="849.311" y2="450.524" gradientUnits="userSpaceOnUse">
<stop offset="0.195" stop-color="white" stop-opacity="0.25"/>
<stop offset="0.66" stop-color="white"/>
</linearGradient>
<linearGradient id="paint2_linear_15_123" x1="782.28" y1="639.985" x2="849.311" y2="706.524" gradientUnits="userSpaceOnUse">
<stop offset="0.195" stop-color="#28A1F1"/>
<stop offset="0.66" stop-color="#28A1F1"/>
</linearGradient>
</defs>
</svg>
