<svg width="1536" height="512" viewBox="0 0 1536 512" fill="none" xmlns="http://www.w3.org/2000/svg">
<rect width="512" height="512" fill="#28A1F1"/>
<path fill-rule="evenodd" clip-rule="evenodd" d="M254.959 374.012L182.165 255.974H135.785V300.89L181.777 374.177L254.959 374.177V374.012Z" fill="url(#paint0_linear_15_124)" fill-opacity="0.5"/>
<path d="M209.734 256L135.846 301.085V210.915L209.734 256Z" fill="white"/>
<path d="M327.601 137.77H400.783L254.959 374.23H181.777L327.601 137.77Z" fill="white"/>
<rect width="512" height="512" transform="translate(512)" fill="#323232"/>
<path fill-rule="evenodd" clip-rule="evenodd" d="M766.959 374.012L694.165 255.974H647.785V300.89L693.777 374.177L766.959 374.177V374.012Z" fill="url(#paint1_linear_15_124)" fill-opacity="0.5"/>
<path d="M721.734 256L647.846 301.085V210.915L721.734 256Z" fill="white"/>
<path d="M839.601 137.77H912.783L766.959 374.23H693.777L839.601 137.77Z" fill="white"/>
<rect width="512" height="512" transform="translate(1024)" fill="white"/>
<path fill-rule="evenodd" clip-rule="evenodd" d="M1278.96 374.013L1206.16 255.974H1159.79V300.89L1205.78 374.177L1278.96 374.177V374.013Z" fill="url(#paint2_linear_15_124)" fill-opacity="0.5"/>
<path d="M1233.73 256L1159.85 301.085V210.915L1233.73 256Z" fill="#28A1F1"/>
<path d="M1351.6 137.77H1424.78L1278.96 374.23H1205.78L1351.6 137.77Z" fill="#28A1F1"/>
<defs>
<linearGradient id="paint0_linear_15_124" x1="135.785" y1="255.974" x2="254.959" y2="374.177" gradientUnits="userSpaceOnUse">
<stop offset="0.195" stop-color="white" stop-opacity="0.25"/>
<stop offset="0.66" stop-color="white"/>
</linearGradient>
<linearGradient id="paint1_linear_15_124" x1="647.785" y1="255.974" x2="766.959" y2="374.177" gradientUnits="userSpaceOnUse">
<stop offset="0.195" stop-color="white" stop-opacity="0.25"/>
<stop offset="0.66" stop-color="white"/>
</linearGradient>
<linearGradient id="paint2_linear_15_124" x1="1159.79" y1="255.974" x2="1278.96" y2="374.177" gradientUnits="userSpaceOnUse">
<stop offset="0.195" stop-color="#28A1F1"/>
<stop offset="0.66" stop-color="#28A1F1"/>
</linearGradient>
</defs>
</svg>
