<svg width="513" height="256" viewBox="0 0 513 256" fill="none" xmlns="http://www.w3.org/2000/svg">
<path d="M271.382 116.814L285.142 150.734L279.766 149.646L292.246 116.814H303.254L281.75 166.094L260.246 116.814H271.382ZM337.835 128.206C336.043 127.225 334.208 126.414 332.331 125.774C330.496 125.134 328.768 124.814 327.147 124.814C325.141 124.814 323.563 125.219 322.411 126.03C321.259 126.841 320.683 128.057 320.683 129.678C320.683 130.787 321.109 131.79 321.963 132.686C322.859 133.539 323.989 134.307 325.355 134.99C326.763 135.673 328.213 136.291 329.707 136.846C331.072 137.358 332.416 137.977 333.739 138.702C335.104 139.385 336.32 140.259 337.387 141.326C338.453 142.35 339.307 143.651 339.947 145.23C340.587 146.766 340.907 148.665 340.907 150.926C340.907 153.315 340.288 155.534 339.051 157.582C337.813 159.63 336 161.294 333.611 162.574C331.221 163.811 328.277 164.43 324.779 164.43C322.987 164.43 321.152 164.259 319.275 163.918C317.44 163.534 315.627 162.979 313.835 162.254C312.043 161.486 310.315 160.526 308.651 159.374L312.747 152.142C313.856 152.953 315.051 153.678 316.331 154.318C317.653 154.915 318.976 155.385 320.299 155.726C321.621 156.067 322.837 156.238 323.947 156.238C325.056 156.238 326.165 156.089 327.275 155.79C328.427 155.449 329.365 154.894 330.091 154.126C330.859 153.358 331.243 152.291 331.243 150.926C331.243 149.987 330.923 149.134 330.283 148.366C329.685 147.598 328.853 146.894 327.787 146.254C326.763 145.614 325.632 145.059 324.395 144.59C322.944 144.035 321.451 143.395 319.915 142.67C318.379 141.945 316.928 141.07 315.563 140.046C314.24 138.979 313.152 137.678 312.299 136.142C311.488 134.563 311.083 132.643 311.083 130.382C311.083 127.651 311.68 125.283 312.875 123.278C314.112 121.273 315.84 119.694 318.059 118.542C320.277 117.347 322.837 116.686 325.739 116.558C329.536 116.558 332.608 117.006 334.955 117.902C337.344 118.798 339.477 119.865 341.355 121.102L337.835 128.206ZM351.275 163.918V114.894H351.339L377.515 152.014L373.547 151.118L399.659 114.894H399.787V163.918H390.507V135.822L391.083 140.622L375.147 163.278H375.019L358.635 140.622L360.235 136.206V163.918H351.275ZM413.243 116.814H422.523V154.958H444.667V163.918H413.243V116.814Z" fill="#28A1F1"/>
<path fill-rule="evenodd" clip-rule="evenodd" d="M146.012 194.378L105.035 127.985H78.9275V153.249L104.817 194.47L146.012 194.47V194.378Z" fill="url(#paint0_linear_15_201)" fill-opacity="0.5"/>
<path d="M120.554 128L78.962 153.359V102.641L120.554 128Z" fill="#28A1F1"/>
<path d="M186.903 61.5H228.098L146.012 194.5H104.817L186.903 61.5Z" fill="#28A1F1"/>
<defs>
<linearGradient id="paint0_linear_15_201" x1="78.9275" y1="127.985" x2="145.959" y2="194.524" gradientUnits="userSpaceOnUse">
<stop offset="0.195" stop-color="#28A1F1"/>
<stop offset="0.66" stop-color="#28A1F1"/>
</linearGradient>
</defs>
</svg>
