<svg width="1920" height="1080" viewBox="0 0 1920 1080" fill="none" xmlns="http://www.w3.org/2000/svg">
<rect width="1920" height="1080" fill="#28A1F1"/>
<path d="M988.823 517.636L1016.34 585.476L1005.59 583.3L1030.55 517.636H1052.57L1009.56 616.196L966.551 517.636H988.823ZM1121.73 540.42C1118.14 538.458 1114.48 536.836 1110.72 535.556C1107.05 534.276 1103.6 533.636 1100.35 533.636C1096.34 533.636 1093.18 534.447 1090.88 536.068C1088.58 537.69 1087.42 540.122 1087.42 543.364C1087.42 545.583 1088.28 547.588 1089.98 549.38C1091.78 551.087 1094.04 552.623 1096.77 553.988C1099.58 555.354 1102.49 556.591 1105.47 557.7C1108.2 558.724 1110.89 559.962 1113.54 561.412C1116.27 562.778 1118.7 564.527 1120.83 566.66C1122.97 568.708 1124.67 571.311 1125.95 574.468C1127.23 577.54 1127.87 581.338 1127.87 585.86C1127.87 590.639 1126.64 595.076 1124.16 599.172C1121.69 603.268 1118.06 606.596 1113.28 609.156C1108.5 611.631 1102.61 612.868 1095.62 612.868C1092.03 612.868 1088.36 612.527 1084.61 611.844C1080.94 611.076 1077.31 609.967 1073.73 608.516C1070.14 606.98 1066.69 605.06 1063.36 602.756L1071.55 588.292C1073.77 589.914 1076.16 591.364 1078.72 592.644C1081.37 593.839 1084.01 594.778 1086.66 595.46C1089.3 596.143 1091.73 596.484 1093.95 596.484C1096.17 596.484 1098.39 596.186 1100.61 595.588C1102.91 594.906 1104.79 593.796 1106.24 592.26C1107.78 590.724 1108.54 588.591 1108.54 585.86C1108.54 583.983 1107.9 582.276 1106.62 580.74C1105.43 579.204 1103.77 577.796 1101.63 576.516C1099.58 575.236 1097.32 574.127 1094.85 573.188C1091.95 572.079 1088.96 570.799 1085.89 569.348C1082.82 567.898 1079.92 566.148 1077.18 564.1C1074.54 561.967 1072.36 559.364 1070.66 556.292C1069.04 553.135 1068.22 549.295 1068.22 544.772C1068.22 539.311 1069.42 534.575 1071.81 530.564C1074.28 526.554 1077.74 523.396 1082.18 521.092C1086.61 518.703 1091.73 517.38 1097.54 517.124C1105.13 517.124 1111.28 518.02 1115.97 519.812C1120.75 521.604 1125.01 523.738 1128.77 526.212L1121.73 540.42ZM1148.61 611.844V513.796H1148.74L1201.09 588.036L1193.15 586.244L1245.38 513.796H1245.63V611.844H1227.07V555.652L1228.23 565.252L1196.35 610.564H1196.1L1163.33 565.252L1166.53 556.42V611.844H1148.61ZM1272.54 517.636H1291.1V593.924H1335.39V611.844H1272.54V517.636Z" fill="white"/>
<path fill-rule="evenodd" clip-rule="evenodd" d="M738.083 672.764L656.129 539.979H603.914V590.506L655.693 672.949L738.083 672.949V672.764Z" fill="url(#paint0_linear_3_4)" fill-opacity="0.5"/>
<path d="M687.167 540.009L603.983 590.726V489.291L687.167 540.009Z" fill="white"/>
<path d="M819.865 407.009H902.255L738.083 673.009H655.693L819.865 407.009Z" fill="white"/>
<defs>
<linearGradient id="paint0_linear_3_4" x1="603.914" y1="539.979" x2="737.976" y2="673.057" gradientUnits="userSpaceOnUse">
<stop offset="0.195" stop-color="white" stop-opacity="0.25"/>
<stop offset="0.66" stop-color="white"/>
</linearGradient>
</defs>
</svg>
